<svg width="404" height="422" viewBox="0 0 404 422" fill="none" xmlns="http://www.w3.org/2000/svg">
<path d="M53.5487 231.518H0V285.096H53.5487V231.518Z" fill="#F5F5F5"/>
<path d="M110.733 231.518H57.1843V285.096H110.733V231.518Z" fill="#F5F5F5"/>
<path d="M167.926 231.518H114.378V285.096H167.926V231.518Z" fill="#F5F5F5"/>
<path d="M225.111 231.518H171.562V285.096H225.111V231.518Z" fill="#F5F5F5"/>
<path d="M282.304 231.518H228.755V285.096H282.304V231.518Z" fill="#F5F5F5"/>
<path d="M339.488 231.518H285.939V285.096H339.488V231.518Z" fill="#F5F5F5"/>
<path d="M396.681 231.518H343.133V285.096H396.681V231.518Z" fill="#F5F5F5"/>
<path d="M453.866 231.518H400.317V285.096H453.866V231.518Z" fill="#F5F5F5"/>
<path d="M53.5487 115.974H0V169.553H53.5487V115.974Z" fill="#F5F5F5"/>
<path d="M53.5487 174.212H0V227.79H53.5487V174.212Z" fill="#F5F5F5"/>
<path d="M110.733 115.974H57.1843V169.553H110.733V115.974Z" fill="#F5F5F5"/>
<path d="M110.733 174.212H57.1843V227.79H110.733V174.212Z" fill="#F5F5F5"/>
<path d="M167.926 115.974H114.378V169.553H167.926V115.974Z" fill="#F5F5F5"/>
<path d="M167.926 174.212H114.378V227.79H167.926V174.212Z" fill="#F5F5F5"/>
<path d="M225.111 115.974H171.562V169.553H225.111V115.974Z" fill="#F5F5F5"/>
<path d="M225.111 174.212H171.562V227.79H225.111V174.212Z" fill="#F5F5F5"/>
<path d="M282.304 115.974H228.755V169.553H282.304V115.974Z" fill="#F5F5F5"/>
<path d="M282.304 174.212H228.755V227.79H282.304V174.212Z" fill="#F5F5F5"/>
<path d="M339.488 115.974H285.939V169.553H339.488V115.974Z" fill="#F5F5F5"/>
<path d="M339.488 174.212H285.939V227.79H339.488V174.212Z" fill="#F5F5F5"/>
<path d="M396.681 115.974H343.133V169.553H396.681V115.974Z" fill="#F5F5F5"/>
<path d="M396.681 174.212H343.133V227.79H396.681V174.212Z" fill="#F5F5F5"/>
<path d="M453.866 115.974H400.317V169.553H453.866V115.974Z" fill="#F5F5F5"/>
<path d="M453.866 174.212H400.317V227.79H453.866V174.212Z" fill="#F5F5F5"/>
<path d="M400.353 10.6082V0.860107H393.494C393.494 1.24537 393.494 10.6082 393.494 10.6082H386.607V66.3642H406.764V10.6082H400.353Z" fill="#EBEBEB"/>
<path d="M428.775 66.3641H262.523V74.8489H428.775V66.3641Z" fill="#E0E0E0"/>
<path d="M403.2 74.8579H398.365V89.6055H403.2V74.8579Z" fill="#E0E0E0"/>
<path d="M299.855 74.8579H295.019V89.6055H299.855V74.8579Z" fill="#E0E0E0"/>
<path d="M356.018 25.6067V18.4838H351.004C351.004 18.7615 351.004 25.6067 351.004 25.6067H345.971V66.3642H360.702V25.6067H356.018Z" fill="#F5F5F5"/>
<path d="M377.474 25.6067V18.4838H372.459C372.459 18.7615 372.459 25.6067 372.459 25.6067H367.427V66.3642H382.157V25.6067H377.474Z" fill="#EBEBEB"/>
<path d="M313.332 39.8884H286.862V66.3732H313.332V39.8884Z" fill="#E0E0E0"/>
<path d="M313.197 46.6888C313.197 46.8591 307.35 47.0024 300.15 47.0024C292.942 47.0024 287.103 46.868 287.103 46.6888C287.103 46.5186 292.942 46.3752 300.15 46.3752C307.35 46.3842 313.197 46.5186 313.197 46.6888Z" fill="#EBEBEB"/>
<path d="M301.1 50.1831C301.109 50.1652 301.198 50.1742 301.368 50.219C301.547 50.2548 301.789 50.3623 302.076 50.5505C302.649 50.9268 303.294 51.7779 303.526 52.9875C303.741 54.1523 303.786 55.7381 302.846 57.1537C302.389 57.8347 301.673 58.4529 300.786 58.7127C299.909 58.9815 298.942 58.9367 298.037 58.6858C296.228 58.2289 294.661 56.8312 294.357 55.1468C294.008 53.5072 294.661 51.9482 295.601 51.1418C296.542 50.3086 297.571 50.0935 298.234 50.0756C298.915 50.0577 299.264 50.219 299.255 50.2458C299.246 50.2996 298.888 50.2279 298.252 50.3175C297.634 50.4071 296.703 50.6759 295.897 51.4644C295.1 52.217 294.581 53.5968 294.912 55.0303C295.198 56.4638 296.551 57.6644 298.198 58.0945C299.013 58.3185 299.864 58.3543 300.607 58.1393C301.35 57.9243 301.959 57.4315 302.371 56.8312C303.222 55.6396 303.24 54.1702 303.088 53.0771C302.926 51.9482 302.407 51.1508 301.923 50.7476C301.44 50.3444 301.073 50.2458 301.1 50.1831Z" fill="#EBEBEB"/>
<path d="M148.504 0H59.5663V92.7594H148.504V0Z" fill="#E0E0E0"/>
<path d="M142.477 0H53.5398V92.7594H142.477V0Z" fill="#EBEBEB"/>
<path d="M130.523 12.4718H65.4942V80.2964H130.523V12.4718Z" fill="#FAFAFA"/>
<path d="M65.4942 80.7445C65.539 80.7983 64.9122 81.4971 63.8735 82.5902C62.8258 83.6833 61.3662 85.1616 59.7275 86.7743C58.0888 88.3871 56.5933 89.8296 55.483 90.851C54.3815 91.8724 53.6741 92.4906 53.6294 92.4369C53.5846 92.3921 54.2024 91.6932 55.2501 90.6001C56.2978 89.507 57.7574 88.0287 59.4051 86.407C61.0438 84.7943 62.5482 83.3518 63.6496 82.3214C64.751 81.3 65.4584 80.6907 65.4942 80.7445Z" fill="#E0E0E0"/>
<path d="M130.523 80.5743C130.577 80.5295 131.275 81.1566 132.367 82.196C133.46 83.2442 134.937 84.7047 136.549 86.3443C138.161 87.9839 139.603 89.4802 140.624 90.5912C141.644 91.6932 142.262 92.401 142.209 92.4458C142.164 92.4906 141.465 91.8724 140.373 90.8241C139.28 89.7758 137.803 88.3154 136.182 86.6668C134.57 85.0272 133.129 83.522 132.099 82.42C131.078 81.3269 130.478 80.6191 130.523 80.5743Z" fill="#E0E0E0"/>
<path d="M130.344 12.651C130.299 12.5973 130.926 11.8984 131.964 10.8054C133.012 9.71228 134.472 8.23393 136.11 6.62119C137.749 5.00845 139.245 3.56595 140.355 2.54455C141.456 1.52315 142.164 0.904929 142.209 0.958687C142.253 1.00349 141.635 1.70234 140.588 2.79542C139.54 3.8885 138.08 5.36684 136.433 6.98854C134.794 8.60128 133.29 10.0438 132.188 11.0741C131.096 12.0955 130.388 12.7048 130.344 12.651Z" fill="#E0E0E0"/>
<path d="M65.3241 12.8212C65.2704 12.866 64.5719 12.2388 63.4795 11.1995C62.387 10.1512 60.9095 8.69081 59.2977 7.05119C57.6858 5.41158 56.2441 3.91531 55.2233 2.80432C54.2025 1.70228 53.5846 0.994465 53.6383 0.949667C53.6831 0.904869 54.3815 1.52308 55.474 2.57136C56.5665 3.61964 58.044 5.08007 59.6648 6.72865C61.2766 8.36827 62.7183 9.87349 63.7481 10.9755C64.76 12.0686 65.3689 12.7764 65.3241 12.8212Z" fill="#E0E0E0"/>
<path d="M130.344 80.2965C130.344 80.2965 130.335 80.18 130.335 79.965C130.335 79.741 130.326 79.4274 130.326 79.0243C130.317 78.182 130.308 76.9546 130.299 75.3687C130.29 72.1612 130.263 67.4932 130.245 61.5529C130.218 49.6724 130.182 32.7476 130.138 12.4808L130.353 12.6959C111.423 12.7048 89.1882 12.7138 65.5121 12.7317H65.5032L65.7449 12.4898C65.736 37.3797 65.7181 60.6749 65.7091 80.3144L65.5032 80.1084C84.9437 80.1532 101.134 80.189 112.47 80.2159C118.139 80.2428 122.598 80.2607 125.651 80.2696C127.165 80.2786 128.329 80.2876 129.135 80.2965C129.52 80.3055 129.815 80.3055 130.03 80.3055C130.236 80.2876 130.344 80.2965 130.344 80.2965C130.344 80.2965 130.254 80.3055 130.057 80.3055C129.842 80.3055 129.556 80.3144 129.18 80.3144C128.383 80.3234 127.236 80.3324 125.732 80.3413C122.687 80.3503 118.246 80.3682 112.596 80.3951C101.223 80.422 84.9884 80.4578 65.4942 80.5026H65.2883V80.2965C65.2793 60.6569 65.2704 37.3708 65.2524 12.4719V12.23H65.4942H65.5032C89.1882 12.2389 111.414 12.2479 130.344 12.2658H130.559V12.4808C130.514 32.8103 130.478 49.7799 130.451 61.6963C130.424 67.6186 130.406 72.2687 130.397 75.4673C130.388 77.0442 130.38 78.2537 130.371 79.087C130.362 79.4812 130.362 79.7858 130.362 80.0098C130.353 80.198 130.344 80.2965 130.344 80.2965Z" fill="#E0E0E0"/>
<path d="M83.9408 39.8256H87.4331C87.4331 39.8256 90.0299 30.8301 96.8176 32.3354C103.605 33.8316 104.304 39.8256 103.811 42.8271C103.811 42.8271 103.408 44.0277 104.814 44.2248C106.211 44.4219 116.697 44.2248 116.697 44.2248C116.697 44.2248 119.697 62.0098 100.319 60.5135C80.95 59.0172 87.7376 46.1243 88.633 44.8251C89.5285 43.526 83.9408 39.8256 83.9408 39.8256Z" fill="#EBEBEB"/>
<path d="M107.097 49.5021C105.074 50.8281 102.459 50.9267 100.077 50.5145C98.8055 50.2905 97.4802 49.9411 96.2444 50.3353C94.8117 50.8012 93.8177 52.3423 93.9879 53.8386L94.1938 54.3493C95.7967 57.2432 99.6382 58.6588 102.737 57.4941C105.835 56.3383 107.796 52.7365 107.097 49.5021Z" fill="#E0E0E0"/>
<path d="M92.0447 39.548C92.0447 39.8616 91.794 40.1124 91.4806 40.1124C91.1672 40.1124 90.9164 39.8616 90.9164 39.548C90.9164 39.2344 91.1672 38.9835 91.4806 38.9835C91.794 38.9835 92.0447 39.2344 92.0447 39.548Z" fill="#E0E0E0"/>
<path d="M33.4814 364.21C32.1651 361.692 33.0516 350.493 34.6634 348.154C36.2752 345.807 38.693 344.149 41.1107 342.635C59.8886 330.889 75.5861 328.416 97.6682 326.015C120.1 323.569 142.719 322.942 165.222 324.555C189.946 326.32 214.902 324.107 237.11 334.984C240.701 336.74 243.817 339.302 245.903 342.689C247.622 345.484 246.933 351.702 245.061 357.67C241.614 368.618 239.966 383.321 212.261 391.152C181.107 399.959 183.274 421.453 183.274 421.453L53.2711 420.369L51.5697 409.779C49.7251 398.32 45.194 387.532 38.8362 377.829C35.8544 373.277 33.8485 368.099 32.9889 362.696" fill="#EBEBEB"/>
<path d="M242.071 367.256C242.08 367.256 242.053 367.355 241.99 367.552C241.927 367.74 241.847 368.036 241.703 368.403C241.426 369.138 240.96 370.204 240.253 371.521C239.545 372.838 238.587 374.397 237.334 376.117C236.08 377.829 234.549 379.719 232.588 381.547C230.627 383.384 228.11 384.979 225.272 386.323C222.424 387.675 219.29 388.858 215.977 390.059C209.359 392.496 201.936 394.789 194.02 396.671C178.161 400.452 163.377 401.67 152.73 401.778C142.056 401.921 135.493 401.142 135.493 401.142C135.493 401.133 135.6 401.133 135.797 401.133C136.03 401.142 136.316 401.151 136.693 401.16C137.507 401.196 138.654 401.249 140.122 401.312C141.609 401.375 143.435 401.393 145.549 401.455C147.662 401.455 150.071 401.491 152.73 401.42C163.359 401.222 178.099 399.95 193.913 396.178C201.811 394.306 209.216 392.03 215.834 389.62C219.147 388.428 222.281 387.263 225.111 385.937C227.931 384.62 230.421 383.061 232.364 381.269C234.316 379.486 235.865 377.623 237.128 375.938C238.39 374.245 239.366 372.704 240.101 371.414C240.835 370.114 241.327 369.075 241.632 368.349C241.793 367.991 241.883 367.704 241.963 367.525C242.026 367.346 242.071 367.256 242.071 367.256Z" fill="#263238"/>
<path d="M167.12 404.708C167.147 404.788 166.019 405.201 164.291 406.07C162.571 406.939 160.279 408.336 158.067 410.281C155.864 412.234 154.181 414.321 153.106 415.925C152.023 417.529 151.477 418.595 151.396 418.559C151.369 418.541 151.477 418.264 151.7 417.762C151.924 417.26 152.291 416.561 152.802 415.728C153.814 414.062 155.488 411.884 157.736 409.904C159.992 407.924 162.348 406.544 164.138 405.756C165.034 405.353 165.768 405.075 166.297 404.914C166.816 404.744 167.102 404.672 167.12 404.708Z" fill="#263238"/>
<path d="M146.095 367.256C194.541 367.256 233.814 360.569 233.814 352.32C233.814 344.072 194.541 337.385 146.095 337.385C97.6486 337.385 58.3752 344.072 58.3752 352.32C58.3752 360.569 97.6486 367.256 146.095 367.256Z" fill="#E0E0E0"/>
<path d="M233.805 352.321C233.779 352.321 233.814 351.989 233.609 351.407C233.403 350.824 232.865 350.045 231.916 349.292C230.027 347.769 226.696 346.318 222.29 345.018C213.443 342.42 200.208 340.324 183.785 339.007C167.353 337.707 147.698 337.152 125.92 338.012C115.04 338.469 103.614 339.266 91.8656 340.825C86.0003 341.623 80.0365 342.599 74.0996 344.042C71.1356 344.777 68.1627 345.619 65.2972 346.766C63.8734 347.348 62.4675 348.002 61.187 348.862C60.5512 349.292 59.9513 349.776 59.4677 350.349C58.9752 350.914 58.6349 351.595 58.6349 352.312C58.6349 353.028 58.9752 353.709 59.4588 354.283C59.9423 354.856 60.5423 355.34 61.1781 355.77C62.4496 356.621 63.8645 357.284 65.2882 357.867C68.1537 359.013 71.1267 359.856 74.0906 360.59C80.0365 362.033 85.9913 363.009 91.8656 363.807C103.614 365.375 115.04 366.172 125.929 366.62C147.707 367.48 167.362 366.925 183.794 365.626C200.217 364.309 213.452 362.212 222.299 359.614C226.704 358.315 230.036 356.863 231.925 355.34C232.874 354.587 233.411 353.808 233.617 353.226C233.823 352.652 233.788 352.312 233.805 352.321C233.805 352.321 233.805 352.401 233.797 352.563C233.797 352.724 233.752 352.957 233.653 353.252C233.465 353.853 232.928 354.659 231.979 355.43C230.089 356.998 226.758 358.485 222.344 359.811C213.487 362.472 200.252 364.622 183.812 365.993C167.371 367.337 147.698 367.928 125.902 367.095C115.004 366.656 103.569 365.868 91.794 364.309C85.9108 363.511 79.938 362.535 73.9653 361.083C70.9834 360.348 68.0015 359.497 65.0912 358.341C63.6495 357.75 62.2078 357.078 60.8915 356.191C60.2289 355.743 59.602 355.241 59.0737 354.605C58.5454 353.987 58.1335 353.19 58.1335 352.312C58.1424 351.434 58.5543 350.636 59.0916 350.027C59.6199 349.4 60.2557 348.898 60.9184 348.45C62.2437 347.563 63.6764 346.9 65.1181 346.309C68.0194 345.144 71.0102 344.302 73.9832 343.567C79.9559 342.116 85.9287 341.148 91.8029 340.351C103.578 338.792 115.013 338.003 125.911 337.564C147.707 336.731 167.38 337.322 183.821 338.666C200.252 340.028 213.496 342.178 222.353 344.848C226.767 346.183 230.098 347.671 231.988 349.23C232.937 350 233.474 350.806 233.662 351.407C233.761 351.702 233.805 351.944 233.805 352.097C233.814 352.24 233.805 352.321 233.805 352.321Z" fill="#263238"/>
<path d="M174.06 344.114C174.096 344.114 174.159 344.49 174.248 345.18C174.302 345.52 174.338 345.95 174.338 346.443C174.356 346.936 174.374 347.5 174.32 348.118C174.284 349.364 174.024 350.833 173.63 352.437C173.192 354.032 172.52 355.725 171.625 357.401C169.816 360.77 167.353 363.278 165.437 364.846C164.461 365.617 163.646 366.208 163.046 366.557C162.455 366.916 162.115 367.104 162.097 367.077C162.043 366.996 163.35 366.19 165.204 364.577C167.031 362.956 169.404 360.465 171.177 357.168C172.063 355.528 172.735 353.871 173.183 352.321C173.595 350.762 173.89 349.328 173.962 348.101C174.186 345.646 173.962 344.122 174.06 344.114Z" fill="#263238"/>
<path d="M184.036 344.965C184.071 344.965 184.08 345.269 184.08 345.825C184.08 346.103 184.063 346.443 184.018 346.828C183.982 347.223 183.937 347.671 183.83 348.154C183.498 350.108 182.621 352.76 180.982 355.313C179.361 357.885 177.355 359.811 175.806 361.03C175.018 361.63 174.365 362.087 173.881 362.365C173.407 362.651 173.138 362.786 173.12 362.759C173.075 362.687 174.096 362.024 175.574 360.761C177.042 359.488 178.967 357.571 180.552 355.053C182.155 352.554 183.06 349.991 183.472 348.092C183.91 346.183 183.946 344.965 184.036 344.965Z" fill="#263238"/>
<path d="M266.427 323.166L246.897 421.462H314.648L324.892 374.774L331.707 421.462H399.789C399.789 421.462 401.4 313.176 380.035 281.808L266.427 323.166Z" fill="#263238"/>
<path d="M219.174 75.0372L246.145 139.027L209.646 173.235C207.166 168.746 198.829 150.737 198.829 150.737C198.829 150.737 181.161 156.167 172.986 139.833C169.019 131.904 162.151 114.854 156.142 99.4165C149.471 82.2856 157.7 62.9775 174.66 55.9263C192.238 48.6152 212.368 57.2613 219.174 75.0372Z" fill="#FFBE9D"/>
<path d="M198.829 150.782C198.829 150.782 209.619 146.58 217.284 134.287C217.284 134.287 217.965 148.569 200.861 155.056L198.829 150.782Z" fill="#EB996E"/>
<path d="M166.789 109.066C167.344 110.329 168.875 110.894 170.201 110.338C171.526 109.783 172.153 108.304 171.589 107.05C171.034 105.787 169.502 105.222 168.177 105.778C166.852 106.333 166.234 107.812 166.789 109.066Z" fill="#263238"/>
<path d="M163.816 106.262C164.255 106.423 165.392 104.246 167.917 103.027C170.425 101.773 172.905 102.176 173.03 101.728C173.102 101.522 172.538 101.119 171.445 100.922C170.371 100.725 168.741 100.814 167.165 101.585C165.598 102.355 164.559 103.583 164.085 104.541C163.601 105.509 163.61 106.19 163.816 106.262Z" fill="#263238"/>
<path d="M191.155 98.5295C191.71 99.7928 193.241 100.357 194.566 99.8017C195.892 99.2463 196.518 97.7679 195.954 96.5135C195.399 95.2502 193.868 94.6858 192.543 95.2413C191.226 95.7878 190.599 97.2662 191.155 98.5295Z" fill="#263238"/>
<path d="M188.853 94.6768C189.292 94.8381 190.429 92.6609 192.954 91.4424C195.462 90.188 197.942 90.5912 198.068 90.1432C198.139 89.9372 197.575 89.534 196.483 89.3369C195.408 89.1397 193.778 89.2293 192.202 89.9999C190.635 90.7704 189.596 91.9979 189.122 92.9566C188.638 93.9242 188.638 94.6051 188.853 94.6768Z" fill="#263238"/>
<path d="M188.782 117.856C188.728 117.703 187.027 118.196 184.322 119.11C183.642 119.361 182.97 119.522 182.648 119.137C182.272 118.743 182.2 117.918 182.146 117.013C181.994 115.159 181.833 113.214 181.672 111.181C180.928 102.902 180.051 96.2269 179.72 96.2627C179.388 96.2986 179.72 103.027 180.472 111.306C180.669 113.34 180.857 115.275 181.045 117.13C181.152 117.981 181.143 119.02 181.94 119.827C182.343 120.221 182.988 120.346 183.454 120.257C183.928 120.185 184.295 120.015 184.618 119.88C187.25 118.76 188.835 117.999 188.782 117.856Z" fill="#263238"/>
<path d="M197.056 115.992C196.635 116.171 197.96 118.913 196.554 121.995C195.157 125.086 192.095 126.197 192.256 126.591C192.301 126.779 193.169 126.806 194.414 126.242C195.641 125.695 197.217 124.45 198.077 122.559C198.927 120.669 198.766 118.778 198.318 117.614C197.871 116.413 197.235 115.884 197.056 115.992Z" fill="#263238"/>
<path d="M183.4 85.0989C183.982 85.6634 186.346 84.1134 189.48 83.0382C192.596 81.8914 195.399 81.6047 195.498 80.7983C195.533 80.422 194.799 79.974 193.51 79.7769C192.229 79.5798 190.402 79.6873 188.522 80.3593C186.65 81.0312 185.164 82.0974 184.295 83.0651C183.418 84.0148 183.131 84.8212 183.4 85.0989Z" fill="#263238"/>
<path d="M161.192 98.5025C161.918 98.8609 163.359 97.4184 165.437 96.3791C167.479 95.2591 169.484 94.8918 169.601 94.0944C169.637 93.7181 169.081 93.2791 168.043 93.1088C167.022 92.9386 165.526 93.1178 164.112 93.8525C162.697 94.5961 161.703 95.725 161.264 96.6658C160.825 97.6066 160.861 98.3144 161.192 98.5025Z" fill="#263238"/>
<path d="M192.74 65.9521C192.784 65.961 192.82 65.97 192.865 65.9789C196.483 66.7764 199.662 68.9267 201.721 71.9998C201.793 72.1073 201.864 72.2149 201.927 72.3134C204.846 76.6857 207.04 81.515 210.004 85.8604C212.959 90.2059 216.899 94.1839 221.923 95.725C223.991 96.3611 226.946 96.0475 227.367 93.9241C227.528 93.0998 227.215 92.2755 226.91 91.496C222.29 79.7589 220.508 68.2099 214.75 56.3921C213.183 53.1756 210.201 50.8909 206.673 50.2816C203.333 49.7082 199.42 49.3409 197.298 51.975C195.175 54.6181 194.119 61.4991 193.044 64.7246" fill="#263238"/>
<path d="M217.392 85.4304C217.616 85.1706 227.054 76.6051 232.149 88.0197C237.244 99.4254 224.743 102.194 224.582 101.871C224.412 101.549 217.392 85.4304 217.392 85.4304Z" fill="#FFBE9D"/>
<path d="M226.131 95.9938C226.167 95.9311 226.391 96.0475 226.794 96.0475C227.188 96.0475 227.797 95.9042 228.29 95.4114C229.292 94.4348 229.454 92.0605 228.594 89.9818C228.164 88.9336 227.501 88.0376 226.767 87.3836C226.051 86.7026 225.245 86.3621 224.591 86.5234C223.929 86.6578 223.66 87.2044 223.66 87.5896C223.651 87.9749 223.821 88.172 223.776 88.2168C223.758 88.2616 223.445 88.1362 223.329 87.6255C223.275 87.3746 223.284 87.052 223.454 86.7116C223.624 86.3622 223.982 86.0754 224.421 85.9321C225.326 85.6006 226.481 86.0575 227.287 86.7743C228.146 87.4731 228.907 88.4677 229.391 89.6503C230.34 91.9799 230.125 94.6588 228.692 95.8684C227.985 96.4328 227.206 96.4955 226.74 96.379C226.275 96.2626 226.096 96.0296 226.131 95.9938Z" fill="#EB996E"/>
<path d="M200.521 54.7525C202.008 49.081 191.862 44.6729 185.397 44.6102C178.941 44.5475 172.054 49.7889 166.78 53.525C163.458 55.8814 160.288 58.7216 156.348 59.752C153.706 60.4419 150.921 60.2537 148.19 60.1283C145.459 60.0118 142.647 59.976 140.095 60.9526C137.543 61.9292 135.278 64.1333 135.027 66.857C134.776 69.5807 137.203 72.4658 139.907 72.0357C136.048 71.2293 132 75.073 132.6 78.9705C133.2 82.8679 138.224 85.3139 141.662 83.3786C139.576 82.6081 137.615 85.5289 138.474 87.5897C139.334 89.6504 141.725 90.6001 143.937 90.8689C149.578 91.5409 155.175 89.068 159.795 85.7619C164.416 82.4558 168.374 78.2895 172.914 74.8669C177.454 71.4444 184.994 65.4862 190.671 65.7371C194.853 65.9162 198.865 69.6614 200.691 68.0128C202.455 66.409 203.1 63.8555 202.831 61.4902C202.563 59.1159 201.533 56.9118 200.521 54.7525Z" fill="#263238"/>
<path d="M140.874 72.6092C140.901 72.6271 140.704 72.8063 140.454 73.2184C140.194 73.6216 139.916 74.2936 139.916 75.2075C139.907 76.1034 140.194 77.2413 140.937 78.2806C141.662 79.3468 142.97 80.1711 144.573 80.422C146.175 80.6729 147.984 80.4041 149.766 79.6963C151.539 78.9705 153.321 77.8864 154.987 76.4977C158.354 73.7381 161.201 69.8138 164.228 65.7819C167.264 61.7501 170.541 58.0408 174.409 55.8098C176.335 54.7167 178.341 53.9641 180.311 53.7043C182.272 53.4176 184.125 53.543 185.764 53.9014C189.05 54.6182 191.405 56.1323 192.793 57.3598C194.199 58.5963 194.745 59.4743 194.745 59.4743C194.701 59.5191 194.083 58.6769 192.659 57.5121C191.253 56.3474 188.907 54.9228 185.692 54.2598C184.089 53.9283 182.272 53.8297 180.382 54.1254C178.484 54.3942 176.532 55.1468 174.66 56.2219C170.908 58.426 167.676 62.0816 164.658 66.0955C161.64 70.1184 158.757 74.0696 155.309 76.865C153.608 78.2717 151.781 79.3558 149.945 80.0905C148.101 80.7983 146.211 81.0671 144.528 80.7714C143.695 80.6191 142.925 80.3324 142.262 79.9292C141.6 79.526 141.089 78.9884 140.713 78.4329C139.943 77.313 139.683 76.1214 139.728 75.1895C139.755 74.2398 140.086 73.541 140.382 73.1467C140.659 72.7615 140.874 72.6092 140.874 72.6092Z" fill="#455A64"/>
<path d="M178.941 49.4305C178.932 49.4036 179.182 49.2692 179.675 49.09C180.167 48.9108 180.893 48.7137 181.824 48.5883C183.66 48.3284 186.364 48.4987 188.943 49.8157C191.522 51.1328 193.25 53.2204 194.119 54.86C194.566 55.6843 194.835 56.3921 194.978 56.8939C195.122 57.3956 195.166 57.6823 195.131 57.6913C195.041 57.7182 194.745 56.6072 193.796 55.0482C192.865 53.4982 191.164 51.536 188.701 50.2816C186.239 49.0273 183.651 48.8033 181.851 48.9646C180.051 49.099 178.967 49.5201 178.941 49.4305Z" fill="#455A64"/>
<path d="M219.03 67.0631C219.048 67.0811 218.807 67.3857 218.207 67.7262C217.616 68.0756 216.613 68.3712 215.377 68.2727C214.15 68.192 212.7 67.6545 211.437 66.6331C210.147 65.6296 209.037 64.2408 207.927 62.7894C206.816 61.3379 205.733 59.985 204.506 59.0263C203.297 58.0497 201.963 57.548 200.799 57.4494C199.635 57.3419 198.685 57.5928 198.112 57.8884C197.521 58.1752 197.253 58.4439 197.217 58.3991C197.199 58.3812 197.423 58.0676 198.014 57.7093C198.596 57.3419 199.59 57.0194 200.826 57.0821C202.061 57.1269 203.521 57.6376 204.802 58.641C206.1 59.6266 207.228 61.0154 208.339 62.4668C209.449 63.9183 210.524 65.2802 211.732 66.2568C212.923 67.2513 214.249 67.7799 215.413 67.9053C216.577 68.0397 217.526 67.8157 218.117 67.538C218.717 67.2782 218.995 67.0273 219.03 67.0631Z" fill="#455A64"/>
<path d="M221.672 74.9117C221.681 74.9296 221.6 74.9924 221.421 75.1088C221.251 75.2253 220.991 75.3955 220.642 75.5747C219.944 75.9421 218.878 76.3901 217.481 76.6499C214.732 77.2144 210.55 76.8649 206.861 74.5175C203.154 72.2149 200.799 68.9356 199.438 66.5076C199.088 65.8983 198.811 65.3428 198.453 64.9396C198.112 64.5275 197.709 64.2945 197.351 64.196C196.617 63.9899 196.214 64.3035 196.205 64.2497C196.169 64.2497 196.563 63.8376 197.396 63.9989C197.799 64.0795 198.274 64.3214 198.668 64.7425C199.071 65.1636 199.393 65.7281 199.751 66.3194C201.175 68.6758 203.539 71.8386 207.139 74.0695C210.712 76.3453 214.732 76.7395 217.428 76.2825C220.168 75.8435 221.627 74.7952 221.672 74.9117Z" fill="#455A64"/>
<path d="M325.214 180.519C310.26 163.37 288.035 142.512 268.263 138.955C264.278 138.239 252.565 138.642 249.091 138.776L244.82 132.262C244.193 131.304 242.877 131.071 241.954 131.77L203.987 160.575C203.055 161.283 202.769 162.546 203.288 163.585L204.891 166.757L201.837 178.423C198.13 192.579 200.799 207.64 209.136 219.664L265.559 301.009L266.49 322.575C273.376 327.09 321.534 336.166 342.497 329.554C360.666 323.829 380.474 298.751 385.443 292.166C386.178 291.198 386.294 289.908 385.766 288.815C379.623 276.226 342.085 199.863 325.214 180.519Z" fill="#E8505B"/>
<path d="M136.961 297.147L185.773 258.952C185.773 258.952 191.208 188.816 191.602 187.346C194.396 176.873 207.246 163.603 207.246 163.603L230.851 239.599L230.134 256.847C229.695 267.32 225.854 277.409 219.021 285.356C218.95 285.446 218.869 285.526 218.798 285.616C215.108 289.863 210.622 293.33 205.652 295.973L155.533 322.646L136.961 297.147Z" fill="#E8505B"/>
<path d="M263.41 296.063C263.401 296.072 263.338 296 263.23 295.866C263.105 295.705 262.944 295.507 262.738 295.257C262.29 294.683 261.672 293.895 260.893 292.891C259.282 290.848 257.052 287.802 254.303 284.048C248.831 276.504 241.524 265.923 233.653 254.087C225.773 242.26 218.807 231.446 213.81 223.579C211.347 219.664 209.35 216.483 207.945 214.243C207.282 213.159 206.754 212.299 206.378 211.69C206.216 211.412 206.082 211.197 205.984 211.018C205.894 210.866 205.858 210.785 205.867 210.776C205.876 210.767 205.93 210.839 206.028 210.991C206.145 211.161 206.288 211.376 206.467 211.636C206.861 212.236 207.416 213.079 208.115 214.145C209.556 216.358 211.598 219.512 214.114 223.391C219.183 231.204 226.194 241.983 234.074 253.809C241.945 265.636 249.199 276.253 254.598 283.842C257.311 287.623 259.487 290.696 261.055 292.775C261.807 293.805 262.398 294.612 262.828 295.194C263.016 295.454 263.159 295.66 263.275 295.83C263.365 295.973 263.41 296.054 263.41 296.063Z" fill="#263238"/>
<path d="M254.428 156.409L250.434 262.652L169.977 301.358L176.729 325.926C176.729 325.926 219.398 324.779 255.216 313.508C281.005 305.39 299.291 282.444 301.467 255.494C304.073 223.185 307.377 181.63 307.278 179.023C307.135 174.704 271.37 150.2 254.428 156.409Z" fill="#E8505B"/>
<path d="M267.663 146.15C267.663 146.15 267.359 146.195 266.759 146.266C266.463 146.311 266.078 146.311 265.648 146.419C265.209 146.526 264.708 146.661 264.135 146.804C261.905 147.521 258.798 149.555 256.523 153.506C254.231 157.421 252.637 162.851 251.769 169.284C250.918 175.717 250.631 183.189 251.204 191.423V191.432V191.441C251.052 210.964 250.873 235.164 250.658 262.652V262.796L250.533 262.858C226.436 274.255 199.268 287.103 170.425 300.74L170.559 300.453C172.099 306.555 173.738 313.059 175.394 319.627C175.932 321.768 176.469 323.901 176.97 325.872L176.72 325.684C192.372 325.047 207.604 323.363 222.147 320.962C229.418 319.761 236.51 318.265 243.387 316.563C245.097 316.124 246.808 315.676 248.5 315.237C250.184 314.744 251.849 314.251 253.515 313.767C255.189 313.319 256.792 312.692 258.404 312.128C260.034 311.608 261.547 310.837 263.096 310.174C275.373 304.521 285.08 295.364 291.384 285.213C294.563 280.133 296.927 274.811 298.583 269.507C300.285 264.202 300.974 258.88 301.431 253.809C303.114 233.471 304.476 217.039 305.416 205.678C305.864 200.006 306.213 195.607 306.454 192.615C306.553 191.127 306.634 189.99 306.687 189.219C306.714 188.834 306.714 188.547 306.723 188.35C306.732 188.153 306.741 188.054 306.741 188.054C306.741 188.054 306.759 188.448 306.732 189.219C306.705 189.99 306.643 191.127 306.553 192.624C306.365 195.616 306.043 200.015 305.613 205.696C304.708 217.057 303.401 233.489 301.78 253.836C301.332 258.916 300.661 264.283 298.951 269.614C297.303 274.954 294.921 280.312 291.733 285.428C285.402 295.651 275.642 304.888 263.284 310.587C261.726 311.259 260.195 312.038 258.556 312.558C256.935 313.122 255.324 313.758 253.649 314.206C251.983 314.699 250.309 315.192 248.625 315.685C246.924 316.124 245.214 316.572 243.503 317.011C236.617 318.713 229.516 320.227 222.236 321.428C207.667 323.838 192.435 325.531 176.747 326.167L176.55 326.176L176.496 325.979C175.994 324.008 175.457 321.876 174.92 319.734C173.263 313.167 171.625 306.662 170.084 300.561L170.031 300.364L170.219 300.274C199.071 286.655 226.248 273.825 250.354 262.446L250.228 262.643C250.488 235.146 250.712 210.955 250.9 191.432V191.45C250.345 183.18 250.649 175.708 251.536 169.248C252.44 162.806 254.061 157.349 256.389 153.416C258.708 149.447 261.869 147.404 264.126 146.714C264.699 146.571 265.209 146.455 265.648 146.347C266.087 146.257 266.472 146.257 266.768 146.222C267.359 146.168 267.663 146.15 267.663 146.15Z" fill="#263238"/>
<path d="M327.193 275.563C327.211 275.59 326.746 275.886 325.895 276.388C325.044 276.898 323.791 277.588 322.224 278.404C319.089 280.043 314.648 282.113 309.589 283.994C304.52 285.876 299.81 287.211 296.363 288.017C294.643 288.42 293.237 288.716 292.27 288.895C291.294 289.075 290.757 289.155 290.748 289.119C290.739 289.083 291.267 288.94 292.226 288.707C293.184 288.474 294.572 288.125 296.273 287.677C299.685 286.781 304.359 285.401 309.41 283.528C314.451 281.647 318.892 279.64 322.062 278.09C323.647 277.319 324.919 276.674 325.797 276.217C326.683 275.769 327.185 275.536 327.193 275.563Z" fill="#263238"/>
<path d="M345.649 294.513C345.658 294.531 345.461 294.692 345.067 294.979C344.628 295.301 344.055 295.723 343.33 296.251C342.945 296.529 342.524 296.834 342.067 297.165C341.592 297.479 341.064 297.792 340.5 298.151C339.363 298.832 338.109 299.683 336.605 300.417C335.862 300.803 335.082 301.215 334.277 301.636C333.462 302.048 332.575 302.398 331.68 302.81C329.898 303.652 327.91 304.333 325.832 305.085C321.624 306.456 316.887 307.63 311.818 308.293C306.741 308.911 301.861 308.956 297.446 308.678C295.243 308.463 293.148 308.302 291.214 307.935C290.247 307.764 289.297 307.648 288.411 307.451C287.524 307.245 286.674 307.048 285.85 306.85C284.211 306.51 282.778 306.008 281.507 305.623C280.871 305.426 280.28 305.256 279.743 305.068C279.215 304.861 278.731 304.673 278.292 304.503C277.459 304.172 276.797 303.903 276.295 303.706C275.839 303.518 275.606 303.41 275.615 303.392C275.624 303.374 275.865 303.455 276.331 303.607C276.842 303.786 277.513 304.019 278.355 304.315C278.794 304.476 279.286 304.646 279.814 304.835C280.352 305.014 280.952 305.166 281.587 305.354C282.859 305.704 284.292 306.187 285.93 306.501C286.745 306.68 287.596 306.868 288.483 307.066C289.369 307.254 290.309 307.361 291.276 307.522C293.202 307.872 295.288 308.015 297.482 308.221C301.87 308.472 306.714 308.409 311.756 307.8C316.788 307.137 321.498 305.981 325.68 304.646C327.749 303.903 329.737 303.249 331.51 302.424C332.405 302.03 333.292 301.69 334.097 301.287C334.903 300.874 335.682 300.48 336.426 300.104C337.93 299.396 339.193 298.572 340.348 297.909C340.912 297.568 341.458 297.273 341.933 296.968C342.398 296.654 342.828 296.359 343.213 296.099C343.956 295.606 344.548 295.203 344.995 294.907C345.416 294.63 345.64 294.495 345.649 294.513Z" fill="#263238"/>
<path d="M249.082 139.735C249.091 139.735 249.109 139.78 249.127 139.878C249.154 139.977 249.181 140.129 249.199 140.326C249.234 140.72 249.243 141.321 249.064 142.055C248.894 142.799 248.545 143.668 247.972 144.582C247.399 145.496 246.593 146.419 245.688 147.404C244.784 148.39 243.799 149.456 242.975 150.773C242.133 152.081 241.399 153.587 240.611 155.172C239.832 156.758 238.946 158.416 237.808 159.993C236.662 161.561 235.31 163.066 233.77 164.419C230.663 167.134 227.09 168.961 223.66 169.92C220.221 170.888 216.962 171.022 214.284 170.771C211.607 170.52 209.494 169.929 208.079 169.427C207.38 169.167 206.834 168.952 206.485 168.773C206.127 168.612 205.939 168.513 205.948 168.495C205.966 168.451 206.727 168.782 208.142 169.239C209.556 169.687 211.661 170.216 214.311 170.413C216.953 170.61 220.159 170.449 223.526 169.472C226.893 168.513 230.385 166.703 233.438 164.042C234.952 162.707 236.286 161.238 237.414 159.706C238.534 158.165 239.411 156.543 240.199 154.966C240.996 153.389 241.757 151.875 242.626 150.549C243.486 149.205 244.515 148.121 245.429 147.162C246.351 146.195 247.157 145.308 247.739 144.43C248.321 143.561 248.688 142.718 248.876 142.011C249.261 140.577 249.011 139.735 249.082 139.735Z" fill="#263238"/>
<g opacity="0.3">
<path opacity="0.3" d="M208.383 169.92C213.308 172.455 218.824 174.041 224.358 173.817C229.892 173.593 235.453 171.443 239.25 167.402C243.53 162.842 245.357 156.256 250.103 152.18C251.607 150.89 253.551 149.546 253.488 147.557C253.443 146.06 252.109 144.815 250.649 144.537C249.181 144.259 247.39 145.8 246.154 146.643C241.918 149.501 241.166 154.142 238.722 158.631C235.973 163.684 231.119 167.474 225.657 169.266C220.195 171.058 214.168 170.896 208.679 169.194" fill="black"/>
</g>
<g opacity="0.3">
<path opacity="0.3" d="M265.612 309.484C270.045 311.267 275.006 309.278 279.367 307.316C279.367 307.316 294.966 301.018 302.864 279.192C306.517 269.085 309.759 258.728 309.75 247.976C309.741 237.225 307.681 226.545 304.458 216.286C301.171 235.352 304.771 255.144 297.16 273.942C291.097 288.913 279.51 301.788 265.227 309.296" fill="black"/>
</g>
<path opacity="0.3" d="M210.174 217.576L227.698 270.053C227.698 270.053 232.588 258.755 230.465 248.846L210.174 217.576Z" fill="black"/>
<g opacity="0.3">
<path opacity="0.3" d="M284.928 306.546C292.879 310.9 301.691 311.975 310.762 311.76C319.833 311.545 328.769 309.44 337.348 306.483C339.837 305.623 342.595 304.413 343.455 301.923C343.813 300.874 343.679 299.53 342.748 298.939C341.861 298.375 340.697 298.724 339.712 299.1C328.975 303.204 318.284 308.329 306.795 308.822C299.64 309.117 291.832 308.4 284.928 306.546Z" fill="black"/>
</g>
<path d="M245.903 135.936C245.921 135.945 245.841 136.115 245.67 136.438C245.473 136.805 245.223 137.262 244.918 137.817C244.256 139.009 243.271 140.729 241.999 142.817C240.727 144.905 239.143 147.359 237.19 149.949C235.238 152.529 232.874 155.235 230.027 157.69C227.161 160.127 224.063 161.982 221.045 163.218C218.027 164.446 215.135 165.091 212.673 165.234C210.219 165.386 208.213 165.162 206.879 164.849C206.198 164.732 205.706 164.535 205.357 164.446C205.007 164.338 204.837 164.275 204.837 164.257C204.855 164.096 207.774 165.279 212.646 164.876C215.064 164.687 217.902 164.024 220.866 162.788C223.821 161.543 226.875 159.706 229.695 157.305C235.319 152.431 239.062 146.714 241.686 142.629C242.993 140.568 244.023 138.875 244.739 137.719C245.079 137.181 245.357 136.733 245.572 136.384C245.778 136.079 245.885 135.927 245.903 135.936Z" fill="#FAFAFA"/>
<path d="M248.858 175.618C248.867 175.636 248.742 175.753 248.482 175.968C248.178 176.219 247.802 176.523 247.336 176.891C246.342 177.688 244.856 178.79 242.975 180.08C241.104 181.379 238.802 182.84 236.188 184.354C233.564 185.85 230.627 187.4 227.457 188.861C224.278 190.303 221.188 191.522 218.341 192.525C215.484 193.511 212.879 194.299 210.667 194.864C208.455 195.437 206.655 195.849 205.401 196.082C204.819 196.19 204.345 196.279 203.96 196.342C203.628 196.396 203.449 196.414 203.449 196.405C203.449 196.387 203.611 196.333 203.942 196.243C204.327 196.145 204.793 196.028 205.366 195.885C206.601 195.598 208.392 195.132 210.577 194.514C212.771 193.905 215.35 193.081 218.189 192.077C221.018 191.047 224.09 189.828 227.251 188.395C230.403 186.943 233.34 185.411 235.964 183.942C238.578 182.455 240.889 181.03 242.778 179.776C244.676 178.521 246.19 177.473 247.22 176.72C247.703 176.38 248.097 176.102 248.42 175.878C248.697 175.699 248.84 175.609 248.858 175.618Z" fill="#FAFAFA"/>
<path d="M250.981 220.103C250.998 220.13 250.604 220.408 249.87 220.865C249.136 221.339 248.043 221.967 246.673 222.692C243.924 224.153 239.975 225.909 235.426 227.298C230.868 228.669 226.606 229.394 223.508 229.699C221.959 229.851 220.705 229.932 219.836 229.95C218.968 229.968 218.484 229.968 218.484 229.932C218.484 229.896 218.959 229.833 219.827 229.753C220.687 229.681 221.941 229.547 223.472 229.349C226.543 228.955 230.761 228.185 235.283 226.823C239.805 225.452 243.736 223.759 246.512 222.388C247.9 221.707 249.011 221.124 249.772 220.703C250.524 220.291 250.963 220.076 250.981 220.103Z" fill="#FAFAFA"/>
<path d="M304.887 202.282C304.878 202.3 304.708 202.202 304.395 202.022C304.037 201.798 303.589 201.53 303.034 201.189C302.738 201.001 302.416 200.795 302.058 200.571C301.7 200.356 301.288 200.15 300.858 199.908C299.989 199.442 299.04 198.86 297.903 198.358C297.348 198.089 296.757 197.811 296.157 197.525C295.548 197.238 294.885 197.005 294.214 196.727C292.879 196.145 291.402 195.688 289.853 195.168C286.727 194.236 283.226 193.43 279.483 192.973C275.74 192.561 272.14 192.534 268.89 192.731C267.269 192.884 265.72 192.991 264.287 193.251C263.571 193.367 262.872 193.448 262.21 193.582C261.556 193.726 260.92 193.86 260.311 193.995C259.093 194.219 258.028 194.568 257.088 194.819C256.613 194.953 256.174 195.061 255.771 195.195C255.377 195.33 255.019 195.455 254.688 195.571C254.07 195.778 253.577 195.939 253.174 196.073C252.825 196.181 252.637 196.234 252.637 196.217C252.628 196.199 252.807 196.118 253.139 195.975C253.533 195.822 254.016 195.625 254.625 195.383C254.956 195.258 255.315 195.114 255.7 194.962C256.094 194.819 256.541 194.693 257.007 194.55C257.956 194.272 259.013 193.896 260.231 193.645C260.84 193.502 261.475 193.358 262.129 193.206C262.792 193.054 263.49 192.964 264.215 192.839C265.657 192.561 267.215 192.436 268.845 192.265C272.122 192.041 275.758 192.05 279.537 192.471C283.307 192.928 286.844 193.753 289.987 194.72C291.545 195.258 293.031 195.733 294.366 196.333C295.037 196.62 295.7 196.871 296.309 197.166C296.918 197.471 297.5 197.758 298.055 198.035C299.183 198.555 300.133 199.164 300.992 199.657C301.413 199.908 301.816 200.132 302.174 200.365C302.514 200.598 302.837 200.822 303.132 201.019C303.661 201.395 304.099 201.691 304.44 201.933C304.753 202.157 304.896 202.273 304.887 202.282Z" fill="#FAFAFA"/>
<path d="M298.556 270.644C298.512 270.662 298.154 269.972 297.437 268.781C296.721 267.58 295.566 265.905 293.909 264.041C290.641 260.269 285.026 255.986 277.961 253.075C270.896 250.163 264.045 248.837 259.129 247.905C256.712 247.475 254.733 247.116 253.282 246.857C252.637 246.74 252.109 246.642 251.688 246.561C251.33 246.489 251.133 246.444 251.142 246.426C251.142 246.409 251.339 246.426 251.706 246.462C252.127 246.516 252.655 246.579 253.309 246.668C254.697 246.857 256.711 247.143 259.192 247.555C264.126 248.398 271.021 249.679 278.158 252.618C285.286 255.556 290.945 259.938 294.178 263.808C295.816 265.726 296.936 267.446 297.607 268.691C297.965 269.3 298.171 269.802 298.342 270.134C298.503 270.456 298.574 270.635 298.556 270.644Z" fill="#FAFAFA"/>
<path d="M246.002 314.95C245.984 314.959 245.912 314.816 245.778 314.547C245.626 314.224 245.447 313.83 245.223 313.355C244.748 312.316 244.094 310.802 243.324 308.911C241.784 305.13 239.823 299.844 238.005 293.886C236.188 287.928 234.862 282.444 234.038 278.448C233.626 276.45 233.313 274.829 233.134 273.7C233.053 273.189 232.991 272.759 232.928 272.401C232.883 272.105 232.874 271.944 232.892 271.944C232.91 271.944 232.955 272.096 233.027 272.383C233.107 272.732 233.206 273.153 233.322 273.664C233.591 274.856 233.949 276.441 234.379 278.368C235.292 282.337 236.671 287.793 238.48 293.734C240.298 299.674 242.196 304.969 243.656 308.777C244.372 310.622 244.963 312.137 245.402 313.275C245.59 313.758 245.742 314.162 245.867 314.502C245.975 314.789 246.02 314.941 246.002 314.95Z" fill="#FAFAFA"/>
<path d="M200.736 325.478C200.709 325.496 200.414 325.092 199.912 324.349C199.402 323.605 198.721 322.494 197.933 321.096C196.357 318.292 194.45 314.242 192.981 309.547C191.522 304.844 190.77 300.435 190.474 297.228C190.322 295.624 190.25 294.325 190.241 293.429C190.232 292.533 190.241 292.031 190.277 292.031C190.313 292.031 190.367 292.524 190.438 293.42C190.501 294.316 190.626 295.606 190.823 297.192C191.208 300.373 192.005 304.736 193.456 309.395C194.916 314.054 196.751 318.095 198.238 320.926C198.981 322.342 199.608 323.48 200.064 324.25C200.53 325.021 200.763 325.46 200.736 325.478Z" fill="#FAFAFA"/>
<path d="M195.981 285.598C195.892 285.616 195.569 284.12 194.701 281.826C194.271 280.679 193.662 279.344 192.901 277.92C192.113 276.504 191.155 274.999 190.008 273.529C188.844 272.06 187.618 270.779 186.436 269.668C185.236 268.584 184.089 267.679 183.078 266.989C181.063 265.591 179.684 264.928 179.72 264.847C179.737 264.821 180.087 264.964 180.714 265.26C181.349 265.546 182.227 266.03 183.275 266.702C184.322 267.365 185.513 268.252 186.749 269.336C187.967 270.438 189.229 271.737 190.411 273.225C191.575 274.721 192.534 276.262 193.313 277.713C194.065 279.174 194.647 280.536 195.041 281.718C195.435 282.892 195.704 283.869 195.829 284.55C195.954 285.213 196.017 285.598 195.981 285.598Z" fill="#FAFAFA"/>
<path d="M228.173 244.384C228.155 244.411 227.645 244.142 226.731 243.613C225.827 243.085 224.493 242.359 222.827 241.517C221.162 240.665 219.129 239.743 216.837 238.829C214.535 237.933 211.965 237.055 209.216 236.302C206.458 235.567 203.79 235.039 201.354 234.654C198.909 234.295 196.689 234.071 194.826 233.973C192.963 233.865 191.441 233.82 190.393 233.829C189.346 233.82 188.764 233.802 188.764 233.767C188.764 233.731 189.337 233.686 190.393 233.632C191.441 233.569 192.963 233.552 194.844 233.614C196.724 233.668 198.954 233.856 201.426 234.197C203.888 234.555 206.575 235.075 209.35 235.818C212.117 236.571 214.705 237.476 217.016 238.399C219.317 239.348 221.341 240.307 222.997 241.203C224.654 242.09 225.961 242.87 226.839 243.452C227.716 244.025 228.191 244.348 228.173 244.384Z" fill="#FAFAFA"/>
<path d="M198.668 191.271C198.632 191.423 197.136 191.029 195.345 191.432C193.546 191.808 192.346 192.776 192.256 192.66C192.149 192.588 193.295 191.351 195.238 190.939C197.19 190.5 198.739 191.154 198.668 191.271Z" fill="#FAFAFA"/>
<path d="M164.559 320.218C164.532 320.236 164.255 319.833 163.789 319.089C163.27 318.265 162.607 317.199 161.819 315.935C160.163 313.274 157.834 309.61 155.166 305.632C152.497 301.654 149.99 298.115 148.154 295.561C147.277 294.343 146.552 293.33 145.987 292.542C145.477 291.825 145.208 291.422 145.235 291.395C145.262 291.377 145.584 291.735 146.14 292.416C146.695 293.097 147.483 294.092 148.441 295.346C150.348 297.846 152.909 301.358 155.587 305.345C158.255 309.332 160.539 313.033 162.124 315.747C162.921 317.109 163.539 318.211 163.959 318.991C164.371 319.77 164.586 320.209 164.559 320.218Z" fill="#FAFAFA"/>
<path d="M306.911 180.34C306.866 180.34 306.786 179.695 306.598 178.53C306.41 177.365 306.078 175.699 305.478 173.683C304.305 169.669 301.816 164.275 297.455 159.563C293.094 154.85 287.892 151.965 283.987 150.495C282.026 149.743 280.388 149.286 279.241 149.008C278.095 148.73 277.459 148.605 277.468 148.56C277.468 148.542 277.638 148.56 277.943 148.596C278.247 148.641 278.713 148.686 279.286 148.811C280.45 149.026 282.116 149.438 284.113 150.155C288.089 151.553 293.399 154.438 297.822 159.213C302.255 163.989 304.726 169.499 305.819 173.576C306.383 175.618 306.669 177.321 306.795 178.494C306.875 179.077 306.884 179.543 306.911 179.856C306.92 180.179 306.929 180.34 306.911 180.34Z" fill="#FAFAFA"/>
<path d="M346.061 213.052C346.07 213.061 345.971 213.204 345.756 213.464C345.506 213.76 345.192 214.136 344.816 214.584C344.413 215.068 343.903 215.65 343.276 216.304C342.658 216.958 341.969 217.72 341.145 218.499C339.542 220.103 337.518 221.895 335.181 223.776C332.826 225.631 330.131 227.548 327.176 229.349C324.212 231.132 321.265 232.638 318.534 233.874C315.785 235.084 313.26 236.042 311.102 236.732C310.036 237.108 309.042 237.359 308.174 237.61C307.314 237.87 306.562 238.049 305.935 238.184C305.362 238.309 304.896 238.417 304.511 238.497C304.189 238.56 304.01 238.587 304.01 238.578C304.01 238.56 304.171 238.497 304.493 238.399C304.87 238.291 305.326 238.157 305.89 237.995C306.499 237.834 307.243 237.619 308.093 237.341C308.944 237.064 309.929 236.786 310.986 236.392C313.126 235.666 315.624 234.671 318.337 233.453C321.042 232.199 323.961 230.693 326.907 228.919C329.844 227.127 332.521 225.228 334.885 223.409C337.223 221.563 339.264 219.807 340.894 218.239C341.736 217.487 342.434 216.743 343.07 216.107C343.715 215.48 344.243 214.915 344.673 214.449C345.076 214.028 345.407 213.679 345.676 213.392C345.918 213.159 346.052 213.034 346.061 213.052Z" fill="#FAFAFA"/>
<path d="M363.961 250.799C363.97 250.799 363.943 250.879 363.872 251.041C363.791 251.22 363.693 251.444 363.567 251.722C363.281 252.313 362.904 253.209 362.313 254.302C361.194 256.524 359.403 259.669 356.851 263.333C354.308 266.998 350.923 271.128 346.679 275.223C342.434 279.326 337.285 283.34 331.411 286.79C325.51 290.203 319.475 292.703 313.815 294.361C308.156 296.036 302.899 296.941 298.458 297.344C294.017 297.756 290.399 297.756 287.918 297.64C286.674 297.613 285.707 297.497 285.053 297.452C284.748 297.425 284.507 297.398 284.31 297.38C284.14 297.362 284.059 297.344 284.059 297.335C284.059 297.326 284.149 297.326 284.319 297.326C284.516 297.335 284.757 297.335 285.062 297.344C285.716 297.353 286.683 297.443 287.918 297.434C290.399 297.497 294.008 297.434 298.422 296.986C302.837 296.538 308.066 295.606 313.681 293.913C319.304 292.228 325.295 289.738 331.16 286.351C336.999 282.919 342.13 278.941 346.365 274.882C350.61 270.824 354.004 266.747 356.574 263.118C359.153 259.499 360.979 256.399 362.152 254.204C362.77 253.119 363.173 252.241 363.487 251.668C363.63 251.399 363.746 251.184 363.836 251.014C363.907 250.871 363.952 250.799 363.961 250.799Z" fill="#FAFAFA"/>
<path d="M380.778 280.384C380.787 280.384 380.733 280.491 380.617 280.688C380.491 280.903 380.321 281.19 380.106 281.557C379.874 281.934 379.623 282.426 379.238 282.946C378.853 283.475 378.414 284.084 377.93 284.756C375.88 287.435 372.37 290.866 367.543 294.459C365.143 296.269 362.439 298.142 359.555 300.175C356.681 302.218 353.619 304.422 350.664 307.056C347.673 309.655 344.995 312.844 342.031 315.998C339.085 319.134 335.682 322.261 331.402 324.116C327.158 325.997 322.636 326.705 318.328 326.992C314.003 327.269 309.821 327.153 305.855 327.09C297.921 326.956 290.748 326.526 284.829 325.415C278.901 324.34 274.281 322.682 271.254 321.213C270.511 320.827 269.848 320.487 269.266 320.191C268.693 319.896 268.236 319.582 267.851 319.358C267.493 319.134 267.206 318.964 266.991 318.829C266.803 318.704 266.705 318.641 266.705 318.632C266.714 318.623 266.812 318.677 267.018 318.785C267.242 318.91 267.529 319.062 267.896 319.268C268.281 319.475 268.747 319.77 269.329 320.057C269.911 320.344 270.582 320.666 271.325 321.033C274.361 322.44 278.982 324.035 284.883 325.056C290.784 326.123 297.93 326.517 305.855 326.624C309.821 326.678 313.985 326.786 318.284 326.499C322.564 326.203 327.023 325.504 331.187 323.65C335.378 321.84 338.718 318.776 341.664 315.658C344.61 312.522 347.323 309.314 350.341 306.707C353.332 304.064 356.412 301.869 359.296 299.835C362.188 297.81 364.91 295.964 367.31 294.172C372.146 290.633 375.674 287.256 377.76 284.63C378.262 283.967 378.709 283.376 379.103 282.856C379.497 282.346 379.757 281.862 380.008 281.495C380.241 281.145 380.42 280.867 380.563 280.652C380.697 280.473 380.769 280.384 380.778 280.384Z" fill="#FAFAFA"/>
<path d="M102.54 352.195C104.393 353.736 107.447 353.539 109.094 351.774C109.891 352.536 110.124 353.727 110.151 354.829C110.178 355.931 110.052 357.06 110.339 358.135C110.617 359.202 111.449 360.241 112.551 360.313C113.5 360.375 114.387 359.694 114.843 358.852C115.3 358.01 115.425 357.042 115.542 356.093C115.766 354.247 115.989 352.41 116.213 350.565C116.688 351.353 117.35 352.231 118.273 352.177C119.392 352.106 119.876 350.726 119.929 349.606C119.992 348.486 120.001 347.16 120.923 346.533C121.156 347.384 122.455 347.482 123.09 346.873C123.726 346.264 123.843 345.296 123.843 344.418C123.843 343.54 123.78 342.608 124.174 341.829L115.112 342.456L102.54 352.195Z" fill="#FAFAFA"/>
<path d="M93.0924 308.589C93.6566 307.764 94.552 307.227 95.537 307.101C97.1041 306.913 99.6203 306.573 100.928 306.277C102.898 305.82 113.375 300.812 115.578 299.817C117.78 298.832 123.09 298.222 124.532 298.375C125.974 298.527 136.379 297.765 136.379 297.765L152.856 313.337C152.856 313.337 146.39 330.71 138.779 334.455C131.176 338.2 123.511 343.316 123.511 343.316L117.556 344.454C117.556 344.454 106.318 352.858 103.372 352.285C100.417 351.72 99.7278 350.466 99.7278 350.466C99.7278 350.466 96.0922 352.554 94.1759 350.69C92.385 348.952 94.1759 346.031 94.1759 346.031C94.1759 346.031 91.2388 345.691 90.8985 344.329C90.5583 342.967 90.6747 340.924 92.376 338.989C94.0774 337.062 105.772 324.34 108.262 322.637C110.76 320.935 112.237 317.754 112.802 315.936C113.366 314.117 111.664 311.393 108.485 312.871C105.307 314.35 101.743 315.156 99.1816 314.717C95.4385 314.09 90.0747 312.988 93.0924 308.589Z" fill="#FFBE9D"/>
<path d="M122.92 333.452C122.902 333.506 122.437 333.353 121.613 333.255C120.798 333.165 119.553 333.147 118.264 333.658L118.058 333.738L117.968 333.541C117.44 332.305 116.563 330.791 115.004 330.146C114.172 329.805 113.222 329.796 112.488 330.038L112.049 330.181L112.166 329.751C112.417 328.838 112.3 327.924 112.058 327.162C111.799 326.392 111.44 325.755 111.118 325.245C110.787 324.734 110.482 324.358 110.276 324.107C110.061 323.847 109.936 323.739 109.945 323.713C109.99 323.641 110.617 324.08 111.369 325.074C111.745 325.576 112.148 326.221 112.452 327.028C112.748 327.834 112.909 328.847 112.64 329.886L112.318 329.59C113.213 329.286 114.234 329.303 115.192 329.68C116.07 330.029 116.76 330.665 117.261 331.328C117.78 331.991 118.094 332.717 118.371 333.38L118.085 333.264C119.535 332.744 120.807 332.851 121.649 333.013C122.499 333.183 122.929 333.425 122.92 333.452Z" fill="#EB996E"/>
<path d="M112.014 329.76C112.058 329.823 111.011 330.665 109.345 332.063C107.68 333.452 105.414 335.414 103.014 337.698C100.614 339.983 98.5368 342.142 97.0593 343.737C95.5818 345.332 94.6863 346.336 94.6236 346.282C94.5968 346.264 94.7848 345.977 95.1609 345.493C95.5281 345.01 96.0833 344.32 96.7907 343.495C98.2055 341.838 100.247 339.625 102.665 337.331C105.074 335.037 107.393 333.111 109.121 331.785C109.981 331.122 110.697 330.602 111.199 330.262C111.709 329.913 111.996 329.733 112.014 329.76Z" fill="#EB996E"/>
<path d="M118.613 333.685C118.631 333.712 118.362 333.936 117.852 334.321C117.252 334.76 116.527 335.288 115.694 335.907C113.867 337.233 111.333 339.069 108.62 341.193C105.915 343.325 103.471 345.287 102.02 346.99C100.543 348.683 100.068 350.036 99.9785 349.991C99.9517 349.982 100.032 349.633 100.301 349.05C100.561 348.468 101.026 347.662 101.743 346.757C103.166 344.938 105.593 342.931 108.306 340.79C111.037 338.657 113.607 336.865 115.488 335.611C116.428 334.984 117.198 334.491 117.745 334.16C118.282 333.828 118.586 333.658 118.613 333.685Z" fill="#EB996E"/>
<path d="M125.678 334.177C125.696 334.204 125.401 334.473 124.819 334.921C124.237 335.36 123.368 335.969 122.231 336.615C121.094 337.26 119.688 337.95 118.058 338.541C116.446 339.15 114.557 339.598 112.631 339.965C111.691 340.18 110.805 340.53 110.169 341.139C109.524 341.73 109.256 342.582 109.39 343.37C109.515 344.159 109.945 344.848 110.518 345.287C111.082 345.735 111.745 345.986 112.354 346.085C113.599 346.291 114.637 345.995 115.309 345.78C115.989 345.547 116.348 345.368 116.374 345.404C116.392 345.431 116.061 345.673 115.38 345.959C114.709 346.237 113.652 346.614 112.3 346.434C111.637 346.345 110.903 346.103 110.258 345.61C109.614 345.126 109.085 344.356 108.933 343.433C108.754 342.528 109.076 341.453 109.82 340.772C110.545 340.064 111.53 339.688 112.506 339.464C114.476 339.087 116.276 338.675 117.897 338.093C119.509 337.528 120.905 336.883 122.052 336.283C124.344 335.1 125.625 334.106 125.678 334.177Z" fill="#EB996E"/>
<path d="M112.336 330.459C112.497 331.221 111.924 332.009 111.226 332.359C110.527 332.708 109.658 332.636 108.987 332.233C108.521 331.955 108.091 331.516 107.554 331.534C106.981 331.552 106.489 332.117 105.915 332.036C105.369 331.955 104.957 331.257 105.11 330.719C105.262 330.181 105.718 329.599 106.292 329.25C106.292 329.25 107.465 328.201 109.291 328.38C111.118 328.56 112.157 329.608 112.336 330.459Z" fill="#FAFAFA"/>
<path d="M145.817 304.431C144.546 302.666 142.11 301.842 140.033 302.478C140.525 300.175 139.71 297.514 137.713 296.269C135.716 295.033 132.618 295.758 131.759 297.944C130.55 296.403 128.302 295.785 126.475 296.484C124.649 297.183 123.386 299.145 123.52 301.098C123.52 301.098 119.41 297.792 116.473 301.994C116.473 301.994 119.079 303.947 123.099 303.93C123.099 303.93 123.099 308.042 127.12 309.458C131.141 310.873 133.093 308.589 133.093 308.589C133.093 308.589 133.872 314.179 137.23 313.722L145.361 310.766L145.835 310.542C147.098 308.768 147.089 306.196 145.817 304.431ZM136.245 296.242C136.469 296.242 136.648 296.421 136.648 296.645C136.648 296.869 136.469 297.049 136.245 297.049C136.021 297.049 135.842 296.869 135.842 296.645C135.842 296.43 136.021 296.242 136.245 296.242ZM134.857 299.002C134.633 299.002 134.454 298.823 134.454 298.599C134.454 298.375 134.633 298.195 134.857 298.195C135.081 298.195 135.26 298.375 135.26 298.599C135.26 298.823 135.081 299.002 134.857 299.002ZM134.911 297.801C134.499 297.801 134.167 297.47 134.167 297.057C134.167 296.645 134.499 296.314 134.911 296.314C135.322 296.314 135.654 296.645 135.654 297.057C135.654 297.47 135.322 297.801 134.911 297.801ZM136.442 302.03C136.03 302.03 135.699 301.699 135.699 301.286C135.699 300.874 136.03 300.543 136.442 300.543C136.854 300.543 137.185 300.874 137.185 301.286C137.185 301.69 136.854 302.03 136.442 302.03ZM137.015 300.032C136.191 300.032 135.528 299.369 135.528 298.545C135.528 297.721 136.191 297.057 137.015 297.057C137.839 297.057 138.501 297.721 138.501 298.545C138.501 299.36 137.839 300.032 137.015 300.032ZM138.967 305.802C138.555 305.802 138.224 305.471 138.224 305.058C138.224 304.646 138.555 304.315 138.967 304.315C139.379 304.315 139.71 304.646 139.71 305.058C139.71 305.471 139.37 305.802 138.967 305.802ZM140.274 304.404C140.051 304.404 139.871 304.225 139.871 304.001C139.871 303.777 140.051 303.598 140.274 303.598C140.498 303.598 140.677 303.777 140.677 304.001C140.677 304.225 140.498 304.404 140.274 304.404ZM141.994 306.116C141.412 306.116 140.937 305.641 140.937 305.058C140.937 304.476 141.412 304.001 141.994 304.001C142.576 304.001 143.05 304.476 143.05 305.058C143.05 305.641 142.576 306.116 141.994 306.116ZM143.373 306.761C143.149 306.761 142.97 306.582 142.97 306.358C142.97 306.134 143.149 305.954 143.373 305.954C143.597 305.954 143.776 306.134 143.776 306.358C143.776 306.582 143.597 306.761 143.373 306.761Z" fill="#EBEBEB"/>
<path d="M137.57 329.339C136.943 328.694 135.976 328.479 135.081 328.569C134.185 328.658 133.343 329.008 132.511 329.357C132.018 327.843 130.487 326.741 128.893 326.759C127.308 326.777 125.795 327.915 125.338 329.438C124.434 328.873 123.314 328.622 122.285 328.882C121.255 329.142 120.35 329.957 120.117 330.997C119.885 332.036 120.413 333.228 121.389 333.64C121.989 333.891 122.679 333.846 123.314 333.998C123.95 334.15 124.604 334.652 124.55 335.306C124.514 335.727 124.192 336.059 123.959 336.417C123.332 337.385 123.377 339.168 124.559 340.118L123.117 341.04C122.401 342.573 123.69 343.621 125.347 343.934C127.013 344.248 128.75 342.707 128.642 341.014C130.46 341.766 132.735 341.551 134.14 340.171C135.546 338.792 135.716 336.238 134.275 334.894C135.555 334.607 136.845 334.034 137.624 332.968C138.385 331.902 138.483 330.28 137.57 329.339ZM132.412 338.442C132.573 338.442 132.699 338.568 132.699 338.729C132.699 338.89 132.573 339.016 132.412 339.016C132.251 339.016 132.126 338.89 132.126 338.729C132.126 338.568 132.251 338.442 132.412 338.442ZM130.791 328.336C131.347 328.336 131.785 328.784 131.785 329.33C131.785 329.886 131.338 330.325 130.791 330.325C130.236 330.325 129.797 329.877 129.797 329.33C129.788 328.784 130.236 328.336 130.791 328.336ZM128.759 328.049C128.974 328.049 129.144 328.219 129.144 328.434C129.144 328.649 128.974 328.819 128.759 328.819C128.544 328.819 128.374 328.649 128.374 328.434C128.374 328.219 128.544 328.049 128.759 328.049ZM126.296 343.03C125.714 343.03 125.249 342.564 125.249 341.981C125.249 341.399 125.714 340.933 126.296 340.933C126.878 340.933 127.344 341.399 127.344 341.981C127.353 342.555 126.878 343.03 126.296 343.03ZM128.275 340.297C127.962 340.297 127.702 340.037 127.702 339.723C127.702 339.41 127.962 339.15 128.275 339.15C128.589 339.15 128.848 339.41 128.848 339.723C128.839 340.037 128.589 340.297 128.275 340.297ZM128.804 330.638C128.445 330.638 128.15 330.343 128.15 329.984C128.15 329.626 128.445 329.33 128.804 329.33C129.162 329.33 129.457 329.626 129.457 329.984C129.457 330.343 129.162 330.638 128.804 330.638ZM130.487 340.073C129.86 340.073 129.341 339.562 129.341 338.926C129.341 338.299 129.851 337.779 130.487 337.779C131.114 337.779 131.633 338.29 131.633 338.926C131.624 339.562 131.114 340.073 130.487 340.073ZM132.26 340.584C131.947 340.584 131.687 340.324 131.687 340.01C131.687 339.697 131.947 339.437 132.26 339.437C132.573 339.437 132.833 339.697 132.833 340.01C132.833 340.333 132.573 340.584 132.26 340.584ZM133.361 339.956C133.2 339.956 133.075 339.831 133.075 339.67C133.075 339.508 133.2 339.383 133.361 339.383C133.523 339.383 133.648 339.508 133.648 339.67C133.648 339.831 133.523 339.956 133.361 339.956ZM134.409 330.674C134.033 330.674 133.72 330.37 133.72 329.984C133.72 329.608 134.024 329.294 134.409 329.294C134.794 329.294 135.099 329.599 135.099 329.984C135.099 330.37 134.794 330.674 134.409 330.674ZM135.43 329.635C135.242 329.635 135.099 329.482 135.099 329.303C135.099 329.115 135.251 328.972 135.43 328.972C135.609 328.972 135.761 329.124 135.761 329.303C135.77 329.482 135.618 329.635 135.43 329.635Z" fill="#FAFAFA"/>
<path d="M128.463 321.455C128.454 320.639 128.427 319.761 127.935 319.107C127.442 318.453 126.314 318.229 125.848 318.901C126.359 317.799 126.045 316.375 125.114 315.595C124.192 314.816 122.732 314.735 121.729 315.425C121.022 314.188 119.303 313.651 118.013 314.269C116.724 314.887 116.061 316.554 116.58 317.889C115.569 317.969 114.61 318.534 114.037 319.367C113.464 320.2 113.285 321.302 113.572 322.27C113.572 322.27 110.841 322.915 112.014 324.68C113.187 326.445 119.124 325.737 119.124 325.737C119.124 325.737 117.449 327.314 120.091 327.655C122.732 327.995 124.64 326.015 124.64 326.015C124.64 326.015 128.105 325.827 128.875 325.2C129.654 324.573 128.463 321.455 128.463 321.455ZM114.396 320.263C114.503 320.263 114.593 320.353 114.593 320.46C114.593 320.568 114.503 320.657 114.396 320.657C114.288 320.657 114.199 320.568 114.199 320.46C114.199 320.353 114.288 320.263 114.396 320.263ZM114.44 321.75C114.225 321.75 114.055 321.58 114.055 321.365C114.055 321.15 114.225 320.98 114.44 320.98C114.655 320.98 114.825 321.15 114.825 321.365C114.825 321.58 114.655 321.75 114.44 321.75ZM115.613 321.231C115.085 321.231 114.664 320.801 114.664 320.281C114.664 319.752 115.094 319.331 115.613 319.331C116.133 319.331 116.563 319.761 116.563 320.281C116.563 320.801 116.133 321.231 115.613 321.231ZM123.493 318.641C123.279 318.641 123.099 318.462 123.099 318.247C123.099 318.032 123.279 317.853 123.493 317.853C123.708 317.853 123.887 318.032 123.887 318.247C123.887 318.462 123.708 318.641 123.493 318.641ZM123.207 316.715C123.207 316.186 123.637 315.765 124.156 315.765C124.684 315.765 125.105 316.195 125.105 316.715C125.105 317.244 124.675 317.665 124.156 317.665C123.637 317.665 123.207 317.244 123.207 316.715ZM124.783 318.946C124.478 318.946 124.228 318.695 124.228 318.39C124.228 318.086 124.478 317.835 124.783 317.835C125.087 317.835 125.338 318.086 125.338 318.39C125.329 318.704 125.087 318.946 124.783 318.946Z" fill="#FAFAFA"/>
<path d="M169.977 301.349L176.254 324.196C176.254 324.196 162.536 335.145 161.721 335.835C160.906 336.525 159.661 337.215 158.909 337.152C158.157 337.089 156.912 336.211 155.972 335.96C155.032 335.71 152.784 335.459 152.157 335.772C151.53 336.086 149.471 336.973 147.34 337.152C145.217 337.34 140.839 340.53 138.645 339.15C136.46 337.77 136.29 335.88 136.29 335.88C136.29 335.88 140.633 334.133 141.268 332.986C141.904 331.83 145.155 326.893 145.531 325.764C145.907 324.635 146.032 321.069 146.032 321.069C146.032 321.069 139.97 321.132 138.779 321.571C137.588 322.01 136.531 322.87 134.275 323.695C132.027 324.51 127.711 325.191 126.959 323.695C126.207 322.198 126.037 320.424 126.332 319.95C126.332 319.95 130.962 314.878 131.956 314.135C132.958 313.382 144.958 307.693 147.59 306.313C150.214 304.933 159.867 298.16 169.977 301.349Z" fill="#FFBE9D"/>
<path d="M169.977 301.349C169.977 301.358 169.896 301.34 169.744 301.313C169.574 301.278 169.35 301.224 169.072 301.161C168.777 301.098 168.41 300.991 167.971 300.91C167.523 300.847 167.013 300.785 166.44 300.704C164.13 300.453 160.628 300.632 156.545 302.075C154.503 302.783 152.336 303.795 150.08 305.085C147.868 306.447 145.307 307.666 142.629 308.983C139.943 310.3 137.095 311.689 134.123 313.194C133.397 313.579 132.591 313.947 131.964 314.412C131.347 314.95 130.747 315.586 130.138 316.213C128.929 317.468 127.72 318.776 126.493 320.111L126.52 320.075C126.386 320.344 126.404 320.863 126.457 321.284C126.511 321.724 126.619 322.172 126.762 322.602C126.833 322.817 126.914 323.032 127.004 323.238C127.048 323.345 127.102 323.444 127.147 323.551C127.201 323.65 127.254 323.704 127.308 323.784C127.577 324.053 128.024 324.205 128.472 324.268C129.377 324.402 130.344 324.331 131.293 324.187C132.242 324.035 133.2 323.811 134.123 323.489C135.054 323.157 135.949 322.745 136.836 322.261C137.284 322.019 137.722 321.768 138.206 321.544C138.671 321.302 139.254 321.177 139.755 321.132C141.824 320.899 143.91 320.863 146.032 320.819L146.301 320.81L146.292 321.078C146.229 322.413 146.167 323.784 145.934 325.191C145.88 325.54 145.773 325.926 145.602 326.257C145.441 326.589 145.271 326.893 145.092 327.207C144.743 327.825 144.367 328.434 144 329.044C143.525 329.805 143.05 330.567 142.585 331.328L141.886 332.457L141.555 333.022C141.447 333.228 141.259 333.443 141.089 333.595C140.373 334.204 139.585 334.616 138.797 335.02C138.009 335.414 137.212 335.772 136.406 336.104L136.558 335.853C136.719 336.883 137.391 337.86 138.224 338.523C138.663 338.872 139.083 339.159 139.594 339.213C140.104 339.276 140.642 339.204 141.17 339.087C142.226 338.828 143.238 338.388 144.241 337.958C145.253 337.546 146.238 337.036 147.393 336.901C148.441 336.803 149.471 336.543 150.456 336.211C150.948 336.041 151.432 335.853 151.897 335.638C152.426 335.351 153.026 335.396 153.536 335.396C154.593 335.468 155.632 335.53 156.634 335.951C157.118 336.158 157.566 336.399 158.005 336.606C158.461 336.812 158.882 337 159.303 336.892C160.198 336.686 161.031 336.131 161.757 335.53C162.518 334.921 163.261 334.33 164.004 333.738C165.482 332.556 166.923 331.409 168.311 330.298C171.105 328.076 173.72 325.988 176.147 324.053L176.084 324.241C174.177 317.19 172.636 311.474 171.562 307.496C171.042 305.533 170.64 304.01 170.362 302.944C170.237 302.442 170.138 302.048 170.057 301.752C169.995 301.493 169.968 301.349 169.977 301.349C169.986 301.349 170.031 301.484 170.111 301.743C170.192 302.03 170.308 302.415 170.46 302.917C170.765 303.974 171.195 305.498 171.75 307.451C172.86 311.42 174.454 317.109 176.424 324.152L176.46 324.268L176.37 324.34C173.962 326.284 171.347 328.381 168.571 330.62C167.183 331.74 165.75 332.887 164.273 334.079C163.538 334.67 162.786 335.271 162.034 335.88C161.273 336.507 160.431 337.098 159.384 337.349C159.124 337.412 158.801 337.403 158.542 337.322C158.282 337.251 158.04 337.143 157.808 337.036C157.342 336.821 156.903 336.579 156.446 336.39C155.569 336.023 154.512 335.943 153.509 335.88C152.999 335.88 152.488 335.844 152.086 336.077C151.602 336.301 151.101 336.498 150.599 336.677C149.587 337.027 148.522 337.295 147.42 337.403C146.417 337.519 145.423 338.012 144.411 338.433C143.4 338.863 142.37 339.311 141.259 339.589C140.695 339.715 140.113 339.795 139.504 339.723C138.877 339.652 138.331 339.284 137.892 338.926C136.979 338.182 136.245 337.17 136.039 335.916L136.012 335.736L136.2 335.665C136.988 335.342 137.776 334.984 138.546 334.599C139.307 334.204 140.095 333.792 140.722 333.246C140.883 333.093 140.982 332.986 141.089 332.798L141.43 332.215L142.137 331.077C142.603 330.316 143.077 329.563 143.552 328.793C143.928 328.183 144.295 327.574 144.635 326.965C144.976 326.338 145.334 325.782 145.414 325.11C145.638 323.766 145.71 322.387 145.764 321.069L146.014 321.329C143.91 321.365 141.815 321.41 139.791 321.634C139.271 321.688 138.842 321.777 138.385 322.001C137.937 322.207 137.489 322.458 137.042 322.7C136.146 323.184 135.215 323.614 134.257 323.954C133.299 324.295 132.323 324.519 131.338 324.671C130.353 324.815 129.368 324.895 128.365 324.752C127.872 324.671 127.353 324.537 126.941 324.125C126.744 323.883 126.636 323.659 126.547 323.435C126.448 323.211 126.368 322.987 126.287 322.754C126.135 322.297 126.028 321.822 125.974 321.347C125.938 320.863 125.848 320.406 126.108 319.833L126.117 319.824L126.135 319.806C127.362 318.471 128.58 317.163 129.797 315.909C130.415 315.282 130.997 314.663 131.669 314.081C132.412 313.534 133.173 313.221 133.917 312.827C136.898 311.321 139.755 309.95 142.45 308.642C145.146 307.334 147.671 306.161 149.901 304.799C152.175 303.517 154.369 302.514 156.437 301.815C160.566 300.391 164.112 300.256 166.44 300.561C167.022 300.65 167.532 300.731 167.98 300.803C168.419 300.901 168.777 301.018 169.072 301.089C169.35 301.17 169.565 301.233 169.735 301.278C169.905 301.322 169.977 301.349 169.977 301.349Z" fill="#EB996E"/>
<path d="M135.322 318.749C135.179 318.758 135.027 317.862 134.588 316.867C134.167 315.864 133.621 315.138 133.729 315.04C133.818 314.941 134.588 315.568 135.054 316.67C135.528 317.763 135.457 318.749 135.322 318.749Z" fill="#EB996E"/>
<path d="M155.945 331.669C155.999 331.705 155.721 332.233 155.175 333.04C154.629 333.828 153.787 334.939 152.515 335.781C151.262 336.632 149.892 337 148.925 337.098C147.949 337.206 147.349 337.143 147.349 337.08C147.349 337 147.94 336.946 148.871 336.749C149.802 336.561 151.056 336.166 152.247 335.36C153.447 334.572 154.288 333.55 154.897 332.825C155.497 332.09 155.891 331.624 155.945 331.669Z" fill="#EB996E"/>
<path d="M145.602 317.091C145.728 317.038 146.22 318.104 146.31 319.528C146.408 320.953 146.05 322.073 145.925 322.037C145.781 322.01 145.898 320.908 145.808 319.564C145.728 318.211 145.468 317.136 145.602 317.091Z" fill="#EB996E"/>
<path d="M144.089 318.408C144.161 318.292 144.85 318.65 145.298 319.457C145.755 320.263 145.692 321.043 145.558 321.043C145.414 321.052 145.253 320.406 144.859 319.708C144.474 319 144 318.525 144.089 318.408Z" fill="#EB996E"/>
<path d="M128.204 323.838C128.168 323.775 128.508 323.542 128.938 323.085C129.359 322.628 129.86 321.885 129.905 320.962C129.968 320.03 129.484 319.278 128.992 318.919C128.508 318.543 128.087 318.507 128.096 318.426C128.087 318.373 128.553 318.274 129.189 318.623C129.493 318.803 129.824 319.089 130.066 319.502C130.308 319.914 130.433 320.442 130.406 320.989C130.362 322.1 129.708 322.933 129.18 323.354C128.651 323.784 128.23 323.892 128.204 323.838Z" fill="#EB996E"/>
<path d="M123.09 354.74C123.926 354.74 124.604 354.062 124.604 353.226C124.604 352.389 123.926 351.711 123.09 351.711C122.255 351.711 121.577 352.389 121.577 353.226C121.577 354.062 122.255 354.74 123.09 354.74Z" fill="#FAFAFA"/>
<path d="M103.963 332.645C103.963 333.434 103.328 334.07 102.54 334.07C101.752 334.07 101.116 333.434 101.116 332.645C101.116 331.857 101.752 331.221 102.54 331.221C103.328 331.23 103.963 331.866 103.963 332.645Z" fill="#FAFAFA"/>
<path d="M116.992 322.494V286.924H122.929L122.831 314.601L123.117 321.786" fill="#FAFAFA"/>
<path d="M123.117 321.786C123.099 321.786 123.073 321.544 123.046 321.096C123.019 320.595 122.974 319.932 122.92 319.098C122.84 317.36 122.634 314.834 122.679 311.698C122.679 305.381 122.688 296.681 122.688 286.924L122.938 287.175C121.882 287.175 120.753 287.175 119.625 287.175C118.73 287.175 117.834 287.175 117.001 287.175L117.252 286.924C117.225 296.852 117.189 305.722 117.171 312.173C117.136 315.335 117.109 317.907 117.091 319.734C117.073 320.586 117.055 321.267 117.046 321.786C117.028 322.252 117.01 322.503 117.001 322.503C116.992 322.503 116.965 322.261 116.957 321.786C116.948 321.276 116.93 320.595 116.912 319.734C116.894 317.898 116.867 315.335 116.831 312.173C116.813 305.722 116.786 296.852 116.751 286.924V286.673H117.001C117.834 286.673 118.721 286.673 119.625 286.673C120.762 286.673 121.891 286.673 122.938 286.673H123.189V286.924C123.117 296.681 123.064 305.372 123.019 311.698C122.929 314.834 123.081 317.351 123.108 319.098C123.126 319.932 123.135 320.595 123.144 321.096C123.135 321.544 123.135 321.786 123.117 321.786Z" fill="#263238"/>
<path d="M118.515 304.306C118.371 304.306 118.264 301.6 118.264 298.276C118.264 294.943 118.38 292.246 118.515 292.246C118.649 292.246 118.765 294.943 118.765 298.276C118.765 301.609 118.649 304.306 118.515 304.306Z" fill="#263238"/>
<path d="M120.879 307.809C120.735 307.809 120.628 305.211 120.628 302.003C120.628 298.796 120.744 296.198 120.879 296.198C121.013 296.198 121.129 298.796 121.129 302.003C121.129 305.211 121.022 307.809 120.879 307.809Z" fill="#263238"/>
<path d="M78.6665 324.537C77.2785 323.48 75.219 323.874 74.0907 325.334L68.1896 332.914C68.1896 332.914 66.1389 335.629 67.5896 338.72C68.8522 341.372 71.8162 339.105 71.8162 339.105L79.6246 329.653C80.6186 328.425 80.6634 326.714 79.7142 325.549C79.4455 325.218 79.1142 324.877 78.7202 324.573C78.7113 324.564 78.6934 324.555 78.6665 324.537Z" fill="#E0E0E0"/>
<path d="M82.2573 322.413C82.92 321.616 80.4664 318.964 79.6873 318.346L75.1294 314.708C74.431 314.081 73.3743 313.938 72.5505 314.493C72.0311 314.851 71.7625 315.353 71.8162 316.043C71.861 316.608 72.1655 317.1 72.5953 317.441L77.4218 321.24C78.165 321.822 81.1649 323.399 81.8006 322.637L82.2573 322.413Z" fill="#EBEBEB"/>
<path d="M82.2573 322.413C82.2752 322.431 82.1409 322.512 81.8364 322.7L81.8544 322.682C81.72 322.87 81.3798 322.96 81.0395 322.933C80.6903 322.915 80.2962 322.817 79.8754 322.673C79.0426 322.369 78.0218 321.939 77.0278 321.186C76.0517 320.433 74.9682 319.609 73.8131 318.713C73.5176 318.489 73.2221 318.256 72.9266 318.014C72.64 317.772 72.2908 317.557 72.0222 317.217C71.5117 316.563 71.3326 315.568 71.9326 314.744C72.2997 314.287 72.846 314 73.428 313.938C74.0011 313.875 74.5563 314.027 74.9861 314.305C75.7652 314.905 76.401 315.452 77.0726 315.98C77.7263 316.509 78.3441 317.02 78.9351 317.495C79.5082 317.96 80.0992 318.408 80.5201 318.892C81.3887 319.833 81.9887 320.684 82.2573 321.347C82.3916 321.67 82.4454 321.957 82.3916 322.154C82.3737 322.351 82.2484 322.422 82.2573 322.413C82.2304 322.396 82.3021 322.315 82.3021 322.145C82.32 321.974 82.2394 321.724 82.0782 321.419C81.7648 320.819 81.138 320.003 80.2515 319.116C79.8217 318.659 79.2665 318.256 78.6575 317.79C78.0576 317.324 77.4218 316.823 76.7592 316.303C76.1055 315.792 75.3801 315.201 74.6996 314.681C74.0101 314.206 72.8997 314.296 72.3535 315.004C71.9237 315.568 72.0222 316.41 72.452 316.939C72.649 317.208 72.9803 317.423 73.2758 317.674C73.5713 317.916 73.8668 318.149 74.1534 318.382C75.2906 319.296 76.3562 320.147 77.3144 320.917C78.2277 321.661 79.2217 322.127 80.0007 322.449C80.7798 322.763 81.5051 322.888 81.7648 322.62L81.7738 322.611H81.7827C82.0872 322.458 82.2484 322.396 82.2573 322.413Z" fill="#263238"/>
<path d="M80.0182 321.015C79.3197 321.785 81.6479 324.554 82.4091 325.199L86.967 329.025C87.6744 329.679 88.7758 329.858 89.6175 329.347C90.1548 329.016 90.4235 328.523 90.3697 327.833C90.325 327.269 90.0116 326.767 89.5817 326.409L84.782 322.404C84.0567 321.794 81.1375 320.065 80.4749 320.8L80.0182 321.015Z" fill="#EBEBEB"/>
<path d="M80.0186 321.016C80.0097 320.998 80.135 320.917 80.4574 320.747L80.4395 320.765C80.5828 320.577 80.923 320.505 81.2633 320.55C81.6126 320.586 81.9886 320.702 82.4095 320.863C83.2244 321.204 84.2273 321.679 85.1944 322.485C86.1525 323.274 87.2182 324.152 88.3733 325.092C88.6688 325.334 88.9643 325.576 89.2598 325.818C89.5464 326.069 89.8956 326.293 90.1732 326.651C90.6925 327.323 90.8895 328.318 90.2627 329.115C89.8777 329.554 89.2956 329.823 88.7046 329.859C88.1047 329.895 87.5405 329.716 87.1017 329.42C86.3137 328.793 85.669 328.228 84.9974 327.664C84.3437 327.108 83.7259 326.58 83.1438 326.078C82.5797 325.585 81.9976 325.119 81.5946 324.609C80.7619 323.632 80.2067 322.754 79.9649 322.082C79.8485 321.75 79.8037 321.464 79.8664 321.267C79.9022 321.069 80.0276 320.998 80.0186 321.016C80.0365 321.034 79.9649 321.114 79.956 321.284C79.9291 321.455 80.0007 321.715 80.135 322.019C80.4216 322.637 81.0036 323.471 81.8633 324.402C82.2752 324.877 82.8304 325.298 83.4214 325.8C84.0214 326.293 84.6482 326.813 85.3108 327.359C85.9734 327.906 86.6719 328.479 87.3883 329.061C87.7465 329.303 88.1942 329.438 88.6509 329.402C89.0986 329.375 89.5464 329.169 89.824 328.846C90.2717 328.291 90.1642 327.449 89.7254 326.911C89.5195 326.633 89.1882 326.409 88.8927 326.15C88.5972 325.899 88.3017 325.657 88.0062 325.415C86.8689 324.456 85.8212 323.56 84.881 322.754C83.9945 321.965 83.0184 321.464 82.2573 321.096C81.4961 320.747 80.7798 320.577 80.5111 320.837L80.5022 320.845H80.4932C80.1888 320.971 80.0365 321.025 80.0186 321.016Z" fill="#263238"/>
<path d="M79.6515 327.852L85.284 321.858L80.6544 318.185L75.4428 324.877C75.7204 327.44 77.189 328.354 79.6515 327.852Z" fill="#E0E0E0"/>
<path d="M84.8452 319.681L88.633 315.497C88.9464 315.111 89.018 314.565 88.7852 314.144C88.3733 313.4 87.7375 313.015 86.9137 313.481L82.5617 318.444" fill="#EBEBEB"/>
<path d="M82.5703 318.435C82.5256 318.399 82.9554 317.835 83.6986 316.921C84.4419 316.007 85.5075 314.753 86.7253 313.337L86.7522 313.31L86.788 313.283C87.0118 313.158 87.2894 313.051 87.5939 313.051C87.8984 313.042 88.2028 313.167 88.4267 313.337C88.6864 313.534 88.8565 313.776 88.9908 314.018C89.143 314.278 89.1968 314.592 89.161 314.878C89.1251 315.165 88.9998 315.434 88.8117 315.658C88.6416 315.837 88.4804 316.025 88.3192 316.195C87.6924 316.858 87.1103 317.486 86.5731 318.05C85.5612 319.098 84.9075 319.725 84.8538 319.69C84.8 319.654 85.3552 318.946 86.2955 317.853C86.8059 317.262 87.3611 316.625 87.9521 315.936C88.1133 315.756 88.2744 315.568 88.4356 315.389C88.561 315.237 88.6505 315.04 88.6774 314.833C88.7043 314.627 88.6684 314.421 88.552 314.233C88.4356 314.027 88.2834 313.83 88.1043 313.696C87.7909 313.445 87.4058 313.472 87.0476 313.678L87.1103 313.624C85.8746 315.031 84.7642 316.249 83.9493 317.118C83.1345 317.96 82.6241 318.471 82.5703 318.435Z" fill="#263238"/>
<path d="M80.8246 318.211C79.947 319.161 80.1619 320.819 81.326 321.921C82.4901 323.014 84.1557 323.139 85.0422 322.19C85.9198 321.24 85.678 319.582 84.5139 318.489C83.3498 317.387 81.7021 317.271 80.8246 318.211Z" fill="#E0E0E0"/>
<path d="M81.2185 317.844C81.2633 317.898 80.7529 318.175 80.6007 318.928C80.4127 319.663 80.6813 320.738 81.523 321.589C81.9349 322.01 82.4364 322.315 82.9558 322.404C83.4751 322.512 83.9766 322.449 84.3527 322.306C85.1228 322.001 85.3466 321.49 85.4183 321.535C85.4631 321.526 85.3735 322.145 84.496 322.601C84.0661 322.817 83.4662 322.924 82.8394 322.825C82.2036 322.736 81.5857 322.377 81.1201 321.903C80.1709 320.962 79.9201 319.681 80.2336 318.856C80.3679 318.444 80.6186 318.149 80.8246 317.996C81.0574 317.844 81.2096 317.817 81.2185 317.844Z" fill="#263238"/>
<path d="M75.4966 324.492C75.5771 324.51 75.4697 324.895 75.5234 325.496C75.5861 326.078 75.8458 326.92 76.5801 327.485C77.3143 328.049 78.3173 328.058 78.953 327.879C79.5978 327.709 79.947 327.44 80.0007 327.494C80.0455 327.52 79.7769 327.906 79.0605 328.183C78.38 328.461 77.1442 328.533 76.2308 327.834C75.3354 327.144 75.1204 326.159 75.1473 325.513C75.1921 324.85 75.4339 324.474 75.4966 324.492Z" fill="#263238"/>
<path d="M80.8067 322.207C80.1798 321.634 79.1769 321.723 78.6038 322.404L75.1563 326.445C74.5653 327.072 74.3593 328.004 74.7712 328.712C75.0309 329.16 75.4518 329.375 76.0517 329.312C76.5443 329.259 76.992 328.981 77.3144 328.596L80.9141 324.34C81.4603 323.695 81.4066 322.745 80.8067 322.207Z" fill="#EBEBEB"/>
<path d="M80.8066 322.207C80.8156 322.189 81.129 322.342 81.3171 322.843C81.4066 323.094 81.4603 323.426 81.3529 323.802C81.2633 324.196 80.932 324.555 80.6455 324.913C80.0097 325.693 79.2933 326.571 78.5143 327.52C78.3083 327.762 78.1023 328.013 77.8874 328.273C77.6636 328.524 77.4845 328.802 77.1621 329.061C76.8576 329.312 76.4457 329.509 75.998 329.545C75.5682 329.599 75.0488 329.447 74.7712 329.133C74.2071 328.515 74.1981 327.673 74.5026 327.01C74.6369 326.669 74.9235 326.365 75.1294 326.132C75.3533 325.881 75.5682 325.63 75.7741 325.388C76.598 324.456 77.3502 323.605 78.0128 322.843C78.174 322.664 78.3262 322.494 78.4695 322.333C78.6217 322.154 78.8098 322.01 79.0068 321.921C79.4008 321.723 79.7948 321.706 80.0813 321.768C80.3768 321.831 80.5649 321.956 80.6723 322.046C80.7798 322.136 80.8156 322.198 80.8066 322.207C80.7708 322.252 80.5649 322.01 80.0366 321.939C79.7858 321.903 79.4456 321.956 79.1411 322.136C78.8277 322.297 78.6128 322.664 78.2904 323.032C77.6457 323.811 76.9293 324.68 76.1323 325.639C75.9264 325.881 75.7115 326.132 75.4966 326.391C75.2727 326.66 75.0757 326.866 74.9593 327.153C74.7085 327.7 74.7444 328.381 75.1563 328.82C75.5413 329.25 76.3562 329.133 76.8219 328.73C77.0636 328.542 77.2606 328.264 77.4934 328.013C77.7084 327.762 77.9233 327.511 78.1382 327.27C78.9531 326.338 79.6963 325.478 80.3589 324.716C80.6813 324.34 80.9858 324.053 81.0753 323.73C81.1917 323.408 81.1738 323.112 81.1201 322.879C81.0126 322.431 80.7708 322.234 80.8066 322.207Z" fill="#263238"/>
<path d="M80.4126 327.162C80.341 327.054 80.3052 326.956 80.3231 326.947C80.341 326.938 80.4126 327.019 80.4753 327.126C80.5469 327.234 80.5828 327.332 80.5649 327.341C80.547 327.35 80.4843 327.278 80.4126 327.162Z" fill="#263238"/>
<path d="M58.7962 282.588C58.7962 282.032 57.8022 273.046 65.351 272.759C72.9087 272.472 117.01 269.569 120.503 270.134C123.941 270.698 126.189 271.97 126.189 276.163V278.036C126.189 278.036 127.039 282.847 123.762 286.924H116.554C116.554 286.924 113.222 282.346 113.975 278.314L70.4014 280.366C70.4014 280.366 68.888 280.258 68.6015 281.826C68.503 282.373 69.6223 342.537 69.6223 342.537C66.533 345.126 62.0288 345.117 58.9394 342.519L58.7514 342.357L58.7962 282.588Z" fill="#E0E0E0"/>
<path d="M58.7962 282.588C58.7962 282.588 58.8141 282.955 58.823 283.672C58.832 284.406 58.841 285.464 58.8499 286.834C58.8589 289.621 58.8768 293.698 58.8947 298.894C58.9126 309.323 58.9305 324.259 58.9484 342.349L58.8768 342.187C60.8289 343.934 63.7033 344.696 66.3539 343.97C67.0076 343.782 67.6523 343.531 68.2523 343.191C68.5388 343.003 68.8522 342.841 69.1209 342.617L69.3268 342.456L69.4343 342.375L69.4612 342.357L69.4701 342.349C69.497 342.313 69.3268 342.662 69.3985 342.51V342.447L69.3895 341.909C69.3626 340.476 69.3358 339.024 69.3089 337.564C69.2015 331.704 69.0851 325.603 68.9597 319.295C68.8433 312.988 68.7269 306.474 68.6105 299.79C68.5567 296.448 68.494 293.061 68.4403 289.639C68.4135 287.928 68.3866 286.207 68.3687 284.478C68.3687 283.6 68.3418 282.776 68.3597 281.835C68.4045 281.369 68.6373 280.876 69.0313 280.554C69.4343 280.222 69.9178 280.088 70.4282 280.106H70.4014C72.6938 279.998 75.1652 279.882 77.6457 279.765C90.2269 279.174 102.432 278.61 113.975 278.063L114.279 278.045L114.225 278.35C113.966 279.837 114.234 281.369 114.727 282.794C115.228 284.209 115.927 285.571 116.76 286.781L116.563 286.682C119.007 286.682 121.407 286.682 123.771 286.691L123.592 286.781C125.571 284.299 126.35 281.047 125.974 278.081V278.054V278.036C125.947 276.558 126.099 275.07 125.625 273.744C125.213 272.4 124.111 271.406 122.813 270.949C122.168 270.698 121.488 270.537 120.807 270.411C120.118 270.295 119.455 270.286 118.756 270.286C117.377 270.277 115.998 270.331 114.646 270.358C109.229 270.546 104.08 270.806 99.2353 271.057C89.5464 271.585 81.0663 272.051 74.0549 272.436C70.5536 272.642 67.4016 272.75 64.6973 272.938C63.363 273.081 62.1452 273.547 61.3035 274.327C60.4438 275.088 59.9245 276.02 59.5663 276.889C58.9036 278.654 58.832 280.133 58.8051 281.1C58.7872 281.593 58.8051 281.96 58.8051 282.211C58.8051 282.462 58.7962 282.588 58.7962 282.588C58.7962 282.588 58.7245 282.086 58.7156 281.1C58.7245 280.124 58.7604 278.636 59.414 276.835C59.7633 275.957 60.2916 274.99 61.1692 274.192C62.0288 273.377 63.2914 272.884 64.6615 272.723C67.4016 272.508 70.5267 272.383 74.028 272.159C81.0395 271.746 89.5195 271.245 99.2085 270.671C104.053 270.411 109.202 270.125 114.628 269.928C115.989 269.892 117.359 269.838 118.756 269.847C119.446 269.838 120.18 269.856 120.879 269.972C121.577 270.098 122.285 270.268 122.965 270.528C123.646 270.788 124.308 271.155 124.855 271.684C125.401 272.203 125.804 272.875 126.046 273.592C126.556 275.044 126.386 276.567 126.422 278.027V277.991C126.825 281.109 126.019 284.46 123.959 287.067L123.887 287.157H123.771C121.407 287.157 119.007 287.157 116.563 287.166H116.437L116.366 287.067C115.488 285.795 114.781 284.433 114.261 282.955C113.751 281.486 113.464 279.882 113.742 278.269L113.993 278.556C102.45 279.102 90.2448 279.676 77.6636 280.276C75.1831 280.392 72.7206 280.509 70.4193 280.616H70.3924C70.0342 280.607 69.6223 280.715 69.3537 280.957C69.0761 281.19 68.897 281.539 68.8612 281.934C68.8701 282.785 68.8701 283.645 68.8791 284.487C68.9059 286.216 68.9239 287.937 68.9507 289.648C69.0045 293.07 69.0582 296.457 69.1119 299.799C69.2283 306.483 69.3358 312.997 69.4432 319.304C69.5507 325.612 69.6582 331.713 69.7656 337.573C69.7925 339.033 69.8193 340.485 69.8462 341.918L69.8552 342.456V342.519C69.9268 342.366 69.7656 342.743 69.7745 342.707L69.7566 342.716L69.7298 342.734L69.6223 342.814L69.4074 342.985C69.1209 343.218 68.7985 343.388 68.494 343.585C67.8583 343.934 67.1777 344.203 66.4882 344.4C63.6944 345.162 60.6587 344.338 58.635 342.519L58.5634 342.456V342.366C58.6171 324.277 58.6529 309.341 58.6798 298.912C58.7066 293.715 58.7335 289.648 58.7424 286.852C58.7604 285.473 58.7693 284.415 58.7783 283.69C58.7783 282.955 58.7962 282.588 58.7962 282.588Z" fill="#263238"/>
<path d="M45.4179 327.664C46.385 325.684 48.8386 324.931 50.7997 325.925L60.9632 331.023C60.9632 331.023 64.4824 332.905 64.4824 337.188C64.4824 340.87 60.2289 340.01 60.2289 340.01L47.0566 333.917C45.3463 333.12 44.3881 331.247 44.809 329.402C44.9254 328.873 45.1045 328.318 45.3821 327.735C45.3911 327.717 45.409 327.69 45.4179 327.664Z" fill="#E0E0E0"/>
<path d="M40.3854 327.377C39.2393 326.875 40.5377 322.503 41.075 321.374L44.2718 314.663C44.7374 313.561 45.8478 312.782 47.0388 312.925C47.7999 313.015 48.3461 313.427 48.6237 314.233C48.8565 314.887 48.758 315.622 48.4625 316.249L45.0687 323.291C44.5494 324.366 42.0958 327.861 41.0033 327.377H40.3854Z" fill="#EBEBEB"/>
<path d="M40.3854 327.377C40.3854 327.359 40.5914 327.332 41.0033 327.314H41.0123L41.0302 327.323C41.4689 327.476 42.1584 326.938 42.848 326.167C43.5285 325.379 44.3613 324.322 45.006 322.978C45.6687 321.58 46.403 320.021 47.191 318.346C47.5671 317.512 48.0596 316.608 48.3909 315.747C48.5252 315.308 48.5521 314.833 48.4177 314.394C48.2834 313.946 48.0148 313.552 47.6208 313.346C47.1462 313.104 46.5373 313.095 46.0358 313.274C45.5164 313.454 45.0777 313.821 44.7732 314.26C44.2449 315.201 43.7703 316.303 43.2957 317.253C42.83 318.22 42.3823 319.134 41.9615 320.003C41.5495 320.872 41.1197 321.643 40.869 322.404C40.3407 323.928 40.072 325.218 40.0273 326.114C40.0004 326.562 40.0631 326.902 40.1705 327.099C40.269 327.305 40.4033 327.341 40.3854 327.377C40.4033 327.377 40.2243 327.368 40.081 327.153C39.9287 326.947 39.8302 326.571 39.8302 326.114C39.8123 325.182 40.0362 323.865 40.5287 322.297C40.7615 321.499 41.1913 320.693 41.5764 319.833C41.9794 318.964 42.4181 318.041 42.8659 317.064C43.3494 316.079 43.7524 315.093 44.3523 313.991C44.7105 313.472 45.2299 313.033 45.8567 312.809C46.4835 312.585 47.2089 312.585 47.8446 312.898C48.9461 313.507 49.1968 314.887 48.8655 315.891C48.4715 316.885 48.0148 317.692 47.6118 318.552C46.797 320.218 46.0358 321.768 45.3553 323.148C44.6389 324.546 43.7792 325.567 43.045 326.356C42.6689 326.741 42.3017 327.054 41.9525 327.261C41.6122 327.467 41.2361 327.565 40.9764 327.44L41.0033 327.449C40.5735 327.413 40.3854 327.395 40.3854 327.377Z" fill="#263238"/>
<path d="M42.1047 324.519C43.2778 324.967 42.1853 329.393 41.6928 330.549L38.8184 337.403C38.4064 338.532 37.3319 339.356 36.132 339.275C35.3708 339.222 34.8067 338.827 34.4843 338.039C34.2246 337.394 34.2784 336.659 34.547 336.014L37.6005 328.819C38.0662 327.717 40.3586 324.116 41.4689 324.546L42.1047 324.519Z" fill="#EBEBEB"/>
<path d="M42.1047 324.519C42.1047 324.537 41.9077 324.573 41.4869 324.608H41.4779L41.46 324.599C41.0123 324.474 40.3496 325.038 39.6959 325.836C39.0602 326.66 38.2721 327.753 37.6901 329.124C37.0991 330.549 36.4364 332.143 35.7201 333.855C35.3798 334.706 34.9321 335.638 34.6366 336.507C34.5201 336.946 34.5202 337.43 34.6724 337.86C34.8336 338.299 35.1112 338.684 35.5231 338.872C36.0066 339.087 36.6155 339.069 37.108 338.863C37.6185 338.657 38.0393 338.272 38.3259 337.815C38.8094 336.847 39.2303 335.727 39.6601 334.76C40.081 333.774 40.4839 332.833 40.869 331.946C41.2451 331.059 41.6301 330.271 41.845 329.491C42.2928 327.941 42.5166 326.642 42.5077 325.746C42.5077 325.298 42.436 324.958 42.3196 324.77C42.2301 324.59 42.0868 324.555 42.1047 324.519C42.0868 324.519 42.2659 324.519 42.4181 324.725C42.5793 324.922 42.6957 325.289 42.7226 325.755C42.7853 326.687 42.6241 328.013 42.2032 329.599C42.0062 330.405 41.6212 331.23 41.2719 332.108C40.9048 332.995 40.5198 333.944 40.1078 334.93C39.678 335.933 39.3198 336.937 38.7646 338.075C38.4333 338.612 37.9319 339.069 37.323 339.329C36.7051 339.58 35.9887 339.616 35.335 339.329C34.2067 338.774 33.8933 337.412 34.1799 336.39C34.5291 335.378 34.941 334.554 35.2992 333.676C36.0424 331.973 36.723 330.396 37.3409 328.972C37.9856 327.547 38.8005 326.481 39.4989 325.666C39.8571 325.262 40.2063 324.94 40.5466 324.716C40.8779 324.492 41.2451 324.375 41.5137 324.492H41.4869C41.9167 324.483 42.1047 324.501 42.1047 324.519Z" fill="#263238"/>
<path d="M46.0806 331.92L36.7767 328.506L39.9198 321.741L49.1072 326.185C50.1191 329.205 49.0087 331.059 46.0806 331.92Z" fill="#E0E0E0"/>
<path d="M36.0783 325.836L29.613 323.408C29.0489 323.166 28.6728 322.61 28.7086 321.992C28.7623 320.935 29.2727 320.137 30.4458 320.164L37.9408 323.13" fill="#EBEBEB"/>
<path d="M37.9319 323.139C37.905 323.193 37.0812 322.933 35.7201 322.44C34.359 321.947 32.4785 321.24 30.3383 320.406L30.4189 320.424C29.9085 320.406 29.425 320.603 29.1832 321.06C29.0489 321.311 28.9683 321.616 28.9504 321.92C28.9146 322.207 28.9772 322.467 29.1205 322.7C29.2638 322.924 29.4787 323.103 29.7115 323.202C29.9981 323.309 30.2757 323.417 30.5533 323.524C31.6009 323.936 32.577 324.322 33.4456 324.671C35.0843 325.334 36.0962 325.782 36.0693 325.845C36.0424 325.907 34.9947 325.585 33.3202 325.003C32.4337 324.689 31.4487 324.34 30.3831 323.954C30.1055 323.856 29.8279 323.748 29.5324 323.65C29.2011 323.515 28.9056 323.282 28.7086 322.969C28.5026 322.664 28.4131 322.252 28.4579 321.885C28.4847 321.535 28.5653 321.168 28.7534 320.827C29.0757 320.191 29.8369 319.887 30.4368 319.94H30.4906L30.5264 319.949C32.6576 320.801 34.5202 321.571 35.8365 322.144C37.1707 322.709 37.9587 323.076 37.9319 323.139Z" fill="#263238"/>
<path d="M39.7496 321.876C41.2182 322.422 41.845 324.393 41.1466 326.284C40.4481 328.174 38.693 329.267 37.2155 328.73C35.7469 328.183 35.1201 326.212 35.8186 324.322C36.526 322.431 38.2811 321.338 39.7496 321.876Z" fill="#E0E0E0"/>
<path d="M39.1139 321.697C39.1139 321.67 39.2751 321.616 39.5795 321.661C39.884 321.706 40.3138 321.903 40.6899 322.306C41.066 322.709 41.3973 323.318 41.4869 324.044C41.5854 324.761 41.5048 325.567 41.2093 326.347C40.9317 327.126 40.4213 327.807 39.8213 328.219C39.2214 328.64 38.5677 328.837 38.0214 328.846C36.8752 328.864 36.3827 328.237 36.4275 328.228C36.4723 328.139 37.0096 328.605 37.9946 328.488C38.9527 328.398 40.2511 327.61 40.7347 326.167C41.272 324.752 41.057 323.274 40.4123 322.539C39.8213 321.75 39.096 321.777 39.1139 321.697Z" fill="#263238"/>
<path d="M48.8565 325.782C48.8834 325.737 49.358 326.042 49.7341 326.83C50.1012 327.592 50.2893 328.918 49.6266 330.128C48.9371 331.328 47.7103 331.857 46.8686 331.928C46 332.018 45.4985 331.767 45.5165 331.722C45.5344 331.642 46.0358 331.749 46.8059 331.579C47.5581 331.427 48.5968 330.898 49.1789 329.886C49.752 328.864 49.6535 327.699 49.3938 326.974C49.152 326.221 48.7938 325.845 48.8565 325.782Z" fill="#263238"/>
<path d="M41.8629 326.302C42.2569 325.307 43.3942 324.832 44.3792 325.254L50.2176 327.771C51.1758 328.13 51.8832 329.061 51.7936 330.083C51.7399 330.737 51.3996 331.212 50.728 331.481C50.1728 331.705 49.546 331.642 48.9998 331.409L42.8748 328.739C41.9346 328.336 41.4958 327.252 41.8629 326.302Z" fill="#EBEBEB"/>
<path d="M41.863 326.302C41.9167 326.311 41.7376 326.66 41.854 327.278C41.9167 327.574 42.0689 327.932 42.3823 328.237C42.6689 328.542 43.1793 328.676 43.7166 328.918C44.8269 329.384 46.0895 329.913 47.4685 330.495C47.8267 330.647 48.1849 330.8 48.5521 330.961C48.9371 331.113 49.2863 331.301 49.6445 331.355C50.3609 331.489 51.2474 331.149 51.4713 330.423C51.7041 329.68 51.3638 328.855 50.7818 328.389C50.4952 328.139 50.146 328.022 49.7699 327.852C49.4028 327.691 49.0446 327.529 48.6864 327.377C47.3163 326.768 46.0627 326.203 44.9612 325.71C44.424 325.469 43.9852 325.227 43.5554 325.254C43.1256 325.254 42.7674 325.415 42.5166 325.594C42.0152 325.952 41.9167 326.338 41.863 326.302C41.845 326.293 41.863 326.203 41.9346 326.042C42.0062 325.881 42.1405 325.648 42.4002 325.424C42.6599 325.2 43.045 324.994 43.5464 324.958C43.7971 324.94 44.0658 324.967 44.3344 325.056C44.6031 325.146 44.8359 325.254 45.1135 325.361C46.2238 325.818 47.4865 326.347 48.8744 326.92C49.2326 327.072 49.5908 327.225 49.9579 327.377C50.3072 327.529 50.7549 327.682 51.1041 327.977C51.8205 328.533 52.2772 329.572 51.9638 330.549C51.6235 331.588 50.4594 331.973 49.5818 331.812C49.1162 331.74 48.7311 331.525 48.373 331.373C48.0058 331.212 47.6476 331.05 47.2984 330.898C45.9283 330.28 44.6837 329.715 43.5822 329.223C43.3226 329.106 43.0718 328.99 42.8301 328.873C42.5793 328.757 42.3555 328.595 42.1853 328.416C41.845 328.049 41.7018 327.628 41.6659 327.296C41.6301 326.956 41.6839 326.696 41.7465 326.526C41.8003 326.374 41.854 326.302 41.863 326.302Z" fill="#263238"/>
<path d="M44.8986 331.588C44.8986 331.731 44.8807 331.839 44.8538 331.839C44.8269 331.839 44.809 331.722 44.809 331.588C44.809 331.445 44.8269 331.337 44.8538 331.337C44.8807 331.337 44.8986 331.454 44.8986 331.588Z" fill="#263238"/>
<path d="M57.9903 329.832C57.9903 329.805 58.2589 329.751 58.7604 329.769C59.2529 329.787 59.9782 329.895 60.8199 330.226C61.6437 330.558 62.5929 331.131 63.381 332.045C64.169 332.95 64.7779 334.168 64.9838 335.548C65.1988 336.91 64.9659 338.317 64.2496 339.329C63.8914 339.831 63.4078 340.225 62.8884 340.422C62.3691 340.619 61.8408 340.646 61.393 340.584C60.4797 340.467 59.8349 340.127 59.3961 339.912C58.9574 339.688 58.7335 339.535 58.7424 339.499C58.7604 339.464 59.0111 339.562 59.4678 339.732C59.9245 339.894 60.5871 340.162 61.4199 340.225C62.2437 340.315 63.2735 339.992 63.8645 339.06C64.4734 338.155 64.6794 336.883 64.4824 335.62C64.2943 334.348 63.7391 333.201 63.0228 332.35C62.3154 331.481 61.4468 330.916 60.6767 330.558C59.1096 329.85 57.9813 329.93 57.9903 329.832Z" fill="#263238"/>
</svg>
