<svg width="388" height="388" viewBox="0 0 388 388" fill="none" xmlns="http://www.w3.org/2000/svg">
<path d="M193.774 3.51506C298.85 3.51506 384.02 88.6967 384.02 193.762C384.02 298.827 298.85 384.009 193.774 384.009C88.6967 384.009 3.52679 298.827 3.52679 193.762C3.52679 88.6967 88.6967 3.51506 193.774 3.51506ZM193.774 0C142.02 0 93.36 20.153 56.7565 56.7565C20.1647 93.3483 0 142.008 0 193.774C0 245.539 20.153 294.187 56.7565 330.791C93.3483 367.382 142.008 387.547 193.774 387.547C245.527 387.547 294.187 367.394 330.791 330.791C367.382 294.199 387.547 245.539 387.547 193.774C387.547 142.008 367.394 93.36 330.791 56.7565C294.187 20.153 245.527 0 193.774 0Z" fill="#DD6747"/>
<path d="M222.89 167.364C219.574 159.713 218.203 153.315 217.723 148.5C217.453 145.84 217.465 143.672 217.571 142.008C217.723 139.524 218.098 138.224 218.098 138.224L216.786 138.575C216.809 138.365 216.832 138.224 216.832 138.224L193.504 144.75L170.176 138.224C170.176 138.224 170.199 138.365 170.223 138.575L168.91 138.224C168.91 138.224 169.285 139.524 169.438 142.008C169.543 143.672 169.555 145.84 169.285 148.5C168.817 153.315 167.434 159.713 164.118 167.364C164.118 167.364 161.962 172.894 146.941 174.816C146.941 174.816 148.043 178.846 150.749 184.424C151.066 185.08 151.405 185.759 151.769 186.451C152.683 188.185 153.725 190.036 154.932 191.934C156.865 194.969 159.197 198.109 161.974 201.12C164.751 209.006 170.867 215.626 177.956 216.727C181.483 217.278 184.834 217.524 187.997 217.5C189.263 217.488 190.505 217.442 191.711 217.36C192.321 217.313 192.918 217.266 193.504 217.207C194.09 217.266 194.699 217.324 195.297 217.36C196.504 217.442 197.746 217.488 199.011 217.5C202.175 217.512 205.514 217.278 209.052 216.727C216.129 215.626 222.257 209.006 225.034 201.12C227.823 198.109 230.154 194.957 232.088 191.934C233.295 190.036 234.349 188.196 235.251 186.451C235.978 185.056 236.61 183.744 237.161 182.525C239.223 177.956 240.079 174.816 240.079 174.816C225.058 172.894 222.89 167.364 222.89 167.364Z" fill="#FF8B66"/>
<path d="M321.417 293.847L279.225 251.655L275.616 365.601C250.776 377.482 222.96 384.149 193.598 384.149C164.071 384.149 136.08 377.424 111.135 365.414L110.666 350.569L107.526 251.667L101.972 257.22H70.8754C77.3665 227.307 90.9698 196.503 120.731 180.779C131.545 175.073 147.527 173.667 152.577 173.351C153.526 173.304 154.405 173.82 154.78 174.687C155.506 176.315 156.877 179.245 158.939 182.795C159.232 183.006 159.443 183.345 159.49 183.732C165.513 193.938 176.796 208.572 193.586 213.177C210.365 208.572 221.636 193.938 227.682 183.732C227.729 183.345 227.94 183.006 228.233 182.795C230.295 179.256 231.666 176.327 232.392 174.687C232.779 173.82 233.646 173.304 234.572 173.351C239.645 173.667 255.592 175.073 266.442 180.779C308.904 203.217 318.476 256.377 321.417 293.847Z" fill="#703311"/>
<path d="M181.389 237.185C181.389 237.185 206.029 287.145 236.247 314.305C236.236 314.305 199.667 302.799 181.389 237.185Z" fill="#662C10"/>
<path d="M172.754 277.444C172.754 277.444 199.503 313.332 234.747 319.25C234.747 319.25 191.934 322.905 172.754 277.444Z" fill="#662C10"/>
<path d="M217.735 148.5C217.465 145.84 217.547 143.672 217.641 142.008L216.668 140.145L193.539 146.308L170.41 140.145L169.438 142.008C169.543 143.672 169.555 145.84 169.285 148.5C172.425 153.596 180.147 163.321 193.504 163.345C193.516 163.345 193.528 163.345 193.539 163.345C193.551 163.345 193.563 163.345 193.574 163.345C206.932 163.31 214.594 153.585 217.735 148.5Z" fill="#DD6747"/>
<path d="M151.511 94.3793C151.511 94.3793 154.135 103.179 156.291 114.638C157.486 120.965 156.573 124.128 150.96 123.261C146.613 122.582 135.552 109.553 139.325 98.363C140.216 95.7501 144.856 91.122 151.511 94.3793Z" fill="#FF8B66"/>
<path d="M146.391 101.316C149.507 104.667 150.503 109.248 150.491 113.689C150.491 114.087 151.066 114.075 151.112 113.689C151.581 109.201 149.976 104.139 146.824 100.882C146.555 100.601 146.121 101.023 146.391 101.316Z" fill="#DD6747"/>
<path d="M146.109 105.698C146.93 105.78 147.738 106.178 148.359 106.694C149.121 107.338 149.589 108.147 150.093 108.99C150.281 109.295 150.773 109.096 150.679 108.744C150.386 107.713 149.648 106.764 148.816 106.108C148.031 105.487 147.129 105.088 146.109 105.065C145.699 105.065 145.711 105.663 146.109 105.698Z" fill="#DD6747"/>
<path d="M236.388 123.273C236.118 123.308 235.872 123.332 235.638 123.367C230.717 123.835 229.92 120.684 231.057 114.649C231.209 113.829 231.361 113.044 231.514 112.248C233.576 101.984 235.837 94.391 235.837 94.391C242.492 91.1337 247.132 95.7619 248.023 98.3747C251.807 109.564 240.735 122.594 236.388 123.273Z" fill="#FF8B66"/>
<path d="M240.536 100.882C237.384 104.139 235.779 109.201 236.247 113.689C236.282 114.075 236.868 114.099 236.868 113.689C236.856 109.248 237.864 104.655 240.969 101.316C241.239 101.023 240.805 100.601 240.536 100.882Z" fill="#DD6747"/>
<path d="M241.25 105.077C240.231 105.1 239.329 105.499 238.544 106.12C237.712 106.776 236.974 107.725 236.681 108.756C236.587 109.107 237.079 109.318 237.267 109.002C237.77 108.158 238.227 107.338 239.001 106.705C239.622 106.178 240.43 105.791 241.25 105.709C241.649 105.663 241.66 105.065 241.25 105.077Z" fill="#DD6747"/>
<path opacity="0.5" d="M235.638 123.367C230.717 123.836 229.92 120.684 231.057 114.65C231.209 113.829 231.361 113.044 231.514 112.248L232.51 112.658C232.521 112.658 232.568 123.097 235.638 123.367Z" fill="#DD6747"/>
<path opacity="0.5" d="M151.722 123.367C156.643 123.836 157.44 120.684 156.303 114.65C156.151 113.829 155.998 113.044 155.846 112.248L154.85 112.658C154.838 112.658 154.78 123.097 151.722 123.367Z" fill="#DD6747"/>
<path d="M193.574 65.427H143.989C143.989 65.427 148.207 79.7802 151.112 95.9846C155.952 122.992 157.088 157.604 193.574 157.604C230.424 157.604 231.221 123.074 236.013 96.0197C238.848 80.0028 243.172 65.427 243.172 65.427H193.574Z" fill="#FF8B66"/>
<path d="M245.445 53.3234C236.657 36.2285 228.561 65.1457 228.561 65.1457L229.065 66.3994L224.976 67.4657C230.494 69.7036 236.001 96.0314 236.001 96.0314L239.938 93.6177V93.606L239.95 93.6294C239.95 93.6177 254.233 70.4183 245.445 53.3234Z" fill="#072735"/>
<path d="M165.348 92.1882C169.695 88.9427 176.562 87.8764 181.19 90.3956C181.588 90.6182 183.24 91.0634 183.615 89.5754C183.826 88.6966 182.432 87.6773 182.08 87.4429C177.077 83.9982 167.739 86.072 164.001 90.6885C163.743 91.0048 163.474 92.1062 163.931 92.4226C164.27 92.6804 165.056 92.4109 165.348 92.1882Z" fill="#072735"/>
<path d="M221.461 92.1882C217.114 88.9427 210.248 87.8764 205.619 90.3956C205.221 90.6182 203.569 91.0634 203.194 89.5754C202.983 88.6966 204.377 87.6773 204.729 87.4429C209.732 83.9982 219.07 86.072 222.808 90.6885C223.066 91.0048 223.335 92.1062 222.878 92.4226C222.538 92.6804 221.753 92.4109 221.461 92.1882Z" fill="#072735"/>
<path d="M177.347 98.3513C177.335 100.66 176.023 102.534 174.417 102.523C172.812 102.511 171.523 100.624 171.535 98.3162C171.547 96.0079 172.859 94.1332 174.464 94.145C176.069 94.1567 177.358 96.0431 177.347 98.3513Z" fill="#072735"/>
<path d="M209.462 98.3513C209.474 100.66 210.786 102.534 212.392 102.523C213.997 102.511 215.286 100.624 215.274 98.3162C215.262 96.0079 213.95 94.1332 212.345 94.145C210.74 94.1567 209.451 96.0431 209.462 98.3513Z" fill="#072735"/>
<path d="M189.286 120.906C189.286 120.906 190.352 122.511 193.574 122.511C196.785 122.511 197.886 120.906 197.886 120.906" stroke="#DD6747" stroke-width="0.4514" stroke-miterlimit="10" stroke-linecap="round"/>
<path d="M34.307 346.315C34.307 346.315 40.3529 314.293 59.0999 275.733L105.417 293.015C105.417 293.015 92.4461 333.052 74.4373 352.455L34.307 346.315Z" fill="#FF8B66"/>
<path d="M323.948 332.49C312.559 343.199 299.8 352.514 286.021 360.176C283.455 336.626 278.826 293.004 278.826 293.004L320.562 277.432C322.636 298.311 323.561 317.832 323.948 332.49Z" fill="#FF8B66"/>
<path d="M114.474 184.459C114.474 184.459 83.846 200.159 52.3745 284.427C52.3745 284.427 89.3177 302.248 109.307 302.928L114.474 184.459Z" fill="#703311"/>
<path d="M323.292 293.543C313.485 298.382 294.48 301.944 277.596 302.858L272.698 184.459C272.698 184.459 282.271 188.278 296.636 208.22C296.659 208.22 297.362 209.298 297.362 209.298C301.78 218.988 319.706 243.816 323.292 293.543Z" fill="#703311"/>
<path d="M207.412 134.24C204.682 135.681 199.14 136.736 193.598 136.736C188.044 136.736 182.502 135.681 179.76 134.24C179.76 134.24 178.612 133.607 178.53 133.748C178.448 133.889 179.397 134.803 179.748 135.084C182.443 137.298 188.36 138.81 193.586 138.81C193.586 138.81 193.586 138.81 193.598 138.81C193.598 138.81 193.598 138.81 193.61 138.81C198.835 138.81 204.752 137.287 207.447 135.084C207.799 134.803 208.748 133.889 208.666 133.748C208.56 133.607 207.412 134.24 207.412 134.24Z" fill="#C9593F"/>
<path d="M152.097 41.0676C152.097 41.0676 147.012 35.3732 150.491 26.0583C153.104 19.075 161.447 15.1147 170.07 18.4189C179.995 22.2151 192.743 14.9155 202.819 20.9263C208.385 24.2421 214.325 27.2065 220.851 28.3548C235.439 30.9208 244.191 21.723 253.998 37.7634C263.477 53.2648 244.953 77.6711 215.274 76.8743C185.584 76.0776 171.476 63.3062 159.97 68.0984C148.464 72.8906 146.613 51.4136 146.613 51.4136L152.097 41.0676Z" fill="#072735"/>
<path d="M159.572 66.7509L152.097 41.0676C152.097 41.0676 133.326 34.6936 133.303 51.519C133.291 60.3535 139.466 63.8803 141.563 69.9965C135.459 90.337 147.176 93.5825 147.176 93.5825L151.112 95.9962C151.112 95.9962 156.619 69.6801 162.138 67.4305L159.572 66.7509Z" fill="#072735"/>
<path d="M272.687 223.71L273.155 233.611L273.659 243.512C274.034 250.108 274.374 256.705 274.843 263.29C275.241 269.886 275.71 276.471 276.19 283.068L277.608 302.846C277.151 299.565 276.741 296.284 276.342 293.004C275.991 289.711 275.616 286.43 275.3 283.138C274.632 276.553 274.175 269.957 273.683 263.36C273.308 256.752 272.956 250.155 272.769 243.535C272.581 236.938 272.488 230.33 272.687 223.71Z" fill="#662C10"/>
<path d="M114.122 223.71C114.322 230.318 114.228 236.938 114.052 243.547C113.876 250.155 113.513 256.763 113.138 263.372C112.658 269.968 112.189 276.565 111.521 283.15C111.205 286.442 110.83 289.723 110.478 293.015C110.068 296.296 109.67 299.577 109.213 302.858L110.631 283.079C111.111 276.495 111.58 269.898 111.978 263.301C112.447 256.716 112.787 250.12 113.162 243.523L113.665 233.623L114.122 223.71Z" fill="#662C10"/>
<path d="M158.471 67.0556C170.082 64.7123 180.065 72.9609 189.895 77.6477C199.527 82.2407 210.787 83.4475 221.004 80.0262C225.374 78.5616 229.744 75.9019 231.104 71.2386C231.42 70.1606 229.733 69.6919 229.416 70.7699C228.151 75.0934 223.769 77.3665 219.75 78.585C214.63 80.1316 209.181 80.5769 203.862 79.9793C198.39 79.3583 193.293 77.4954 188.431 74.9645C183.779 72.5391 179.327 69.7036 174.488 67.6649C169.262 65.4621 163.638 64.2319 158.002 65.3684C156.912 65.591 157.369 67.2782 158.471 67.0556Z" fill="#072735"/>
<path d="M155.53 34.1897C148.968 31.9987 139.618 31.0379 134.826 37.1189C132.6 39.9427 131.721 43.5632 131.827 47.1135C131.92 50.4528 132.752 54.003 135.306 56.3346C136.138 57.0962 137.38 55.866 136.548 55.0926C134.24 52.9836 133.607 49.7146 133.572 46.7034C133.549 43.5281 134.381 40.2591 136.502 37.822C138.669 35.338 141.516 34.5061 144.727 34.3655C148.254 34.2132 151.733 34.7404 155.073 35.8653C156.127 36.2402 156.584 34.553 155.53 34.1897Z" fill="#072735"/>
<path opacity="0.2" d="M240.079 237.185H216.469C216.469 237.185 217.196 265 220.137 269.863C223.066 274.725 236.575 284.579 240.079 284.427C243.582 284.579 257.092 274.725 260.021 269.863C262.95 265 263.688 237.185 263.688 237.185H240.079Z" fill="#DD6747"/>
<path d="M95.0473 178.471C94.6606 175.05 94.5786 170.984 91.7431 171.16C88.8959 171.336 87.0915 177.323 86.4822 178.67C85.873 180.018 84.6778 182.748 82.0181 184.529C79.3584 186.31 73.3008 185.619 71.0277 181.436C68.7546 177.264 72.9258 171.219 72.9258 171.219C72.9258 171.219 77.2025 168.102 79.5224 167.024C81.8424 165.958 84.174 167.422 84.174 167.422C86.0721 170.691 90.4308 172.578 92.0126 170.633C93.5826 168.688 91.169 163.357 90.3605 161.564C89.5521 159.759 83.6233 156.28 77.9758 155.869C72.3165 155.459 64.6068 163.954 64.6068 163.954C61.7128 165.676 63.5055 155.002 63.1188 151.241C62.7321 147.48 62.8962 142.711 62.7556 139.325C62.615 135.939 63.0368 129.05 61.701 122.5C60.3653 115.95 55.702 115.317 54.999 116.442C54.296 117.567 53.839 133.631 53.511 136.97C53.1829 140.309 50.7458 154.358 50.7458 154.358C50.7458 154.358 47.758 142.348 47.8869 139.548C48.0158 136.748 48.3087 135.213 47.9923 129.038C47.676 122.851 44.1843 121.293 42.6846 121.844C41.1731 122.406 39.5327 133.068 39.3335 134.849C39.1344 136.63 39.5445 144.399 39.6499 149.66C39.7437 154.92 43.1533 167.457 43.1533 167.457C38.9469 165.489 36.0763 159.115 34.3187 154.44C32.5612 149.765 28.5657 146.32 26.0466 146.824C23.5275 147.328 25.5076 150.515 28.2377 159.595C30.9677 168.676 33.6978 171.898 37.5995 176.761C40.9505 180.944 44.653 190.305 44.7702 197.535C44.7702 209.181 43.6102 234.595 41.5363 243.02C36.5098 263.454 28.1088 292.113 29.093 323.327C30.6631 374.143 76.8275 366.035 81.151 339.086C88.4272 293.648 65.5793 260.97 72.0939 226.604C72.1056 226.522 72.1291 226.405 72.1408 226.276C72.9024 219.293 75.7378 212.72 79.7099 206.92C81.854 203.78 83.6702 200.558 84.8067 198.156C87.6656 192.11 90.5948 190.54 92.7273 187.552C94.8363 184.564 95.3871 181.494 95.0473 178.471Z" fill="#FF8B66"/>
<path d="M82.393 327.393C82.3461 325.483 82.2758 323.573 82.1704 321.663C82.0884 319.753 81.9946 317.843 81.8775 315.934C81.6431 312.126 81.3854 308.306 81.0104 304.51C80.6706 300.702 80.2019 296.917 79.6747 293.133C79.37 291.246 79.1006 289.36 78.7256 287.485C78.421 285.599 77.9875 283.736 77.5774 281.873C78.6788 285.54 79.5224 289.278 80.202 293.051C80.8464 296.823 81.3151 300.631 81.7017 304.439C82.0181 308.259 82.2876 312.079 82.4047 315.91C82.5336 319.742 82.5453 323.573 82.393 327.393Z" fill="#DD6747"/>
<path d="M209.896 112.072C200.405 112.072 200.745 109.412 193.645 109.412C186.544 109.412 186.896 112.072 177.393 112.072C164.399 112.072 153.585 117.532 153.585 117.532C161.447 162.384 193.645 158.846 193.645 158.846C193.645 158.846 225.831 162.384 233.705 117.532C233.716 117.52 222.902 112.072 209.896 112.072Z" fill="#66E2CA"/>
<path d="M151.323 95.8674C151.323 95.8674 151.593 101.48 154.768 118.575" stroke="#66E2CA" stroke-width="0.9355" stroke-miterlimit="10" stroke-linecap="round"/>
<path d="M236.224 95.9026C236.224 95.9026 235.779 101.48 232.615 118.575" stroke="#66E2CA" stroke-width="0.9355" stroke-miterlimit="10" stroke-linecap="round"/>
</svg>
